<?xml version="1.0" encoding="utf-8" standalone="no"?>
<!DOCTYPE svg PUBLIC "-//W3C//DTD SVG 1.1//EN"
  "http://www.w3.org/Graphics/SVG/1.1/DTD/svg11.dtd">
<!-- Created with matplotlib (http://matplotlib.org/) -->
<svg height="432pt" version="1.1" viewBox="0 0 864 432" width="864pt" xmlns="http://www.w3.org/2000/svg" xmlns:xlink="http://www.w3.org/1999/xlink">
 <defs>
  <style type="text/css">
*{stroke-linecap:butt;stroke-linejoin:round;}
  </style>
 </defs>
 <g id="figure_1">
  <g id="patch_1">
   <path d="
M0 432
L864 432
L864 0
L0 0
z
" style="fill:#ffffff;"/>
  </g>
  <g id="axes_1">
   <g id="patch_2">
    <path d="
M108 388.8
L777.6 388.8
L777.6 43.2
L108 43.2
z
" style="fill:#ffffff;"/>
   </g>
   <g id="patch_3">
    <path clip-path="url(#pad36b945f0)" d="
M131.914 388.8
L155.829 388.8
L155.829 365.2
L131.914 365.2
z
" style="fill:#008000;opacity:0.6;stroke:#000000;stroke-linejoin:miter;"/>
   </g>
   <g id="patch_4">
    <path clip-path="url(#pad36b945f0)" d="
M179.743 388.8
L203.657 388.8
L203.657 358.091
L179.743 358.091
z
" style="fill:#008000;opacity:0.6;stroke:#000000;stroke-linejoin:miter;"/>
   </g>
   <g id="patch_5">
    <path clip-path="url(#pad36b945f0)" d="
M227.571 388.8
L251.486 388.8
L251.486 349.865
L227.571 349.865
z
" style="fill:#008000;opacity:0.6;stroke:#000000;stroke-linejoin:miter;"/>
   </g>
   <g id="patch_6">
    <path clip-path="url(#pad36b945f0)" d="
M275.4 388.8
L299.314 388.8
L299.314 341.779
L275.4 341.779
z
" style="fill:#008000;opacity:0.6;stroke:#000000;stroke-linejoin:miter;"/>
   </g>
   <g id="patch_7">
    <path clip-path="url(#pad36b945f0)" d="
M323.229 388.8
L347.143 388.8
L347.143 330.452
L323.229 330.452
z
" style="fill:#008000;opacity:0.6;stroke:#000000;stroke-linejoin:miter;"/>
   </g>
   <g id="patch_8">
    <path clip-path="url(#pad36b945f0)" d="
M371.057 388.8
L394.971 388.8
L394.971 315.792
L371.057 315.792
z
" style="fill:#008000;opacity:0.6;stroke:#000000;stroke-linejoin:miter;"/>
   </g>
   <g id="patch_9">
    <path clip-path="url(#pad36b945f0)" d="
M418.886 388.8
L442.8 388.8
L442.8 296.141
L418.886 296.141
z
" style="fill:#008000;opacity:0.6;stroke:#000000;stroke-linejoin:miter;"/>
   </g>
   <g id="patch_10">
    <path clip-path="url(#pad36b945f0)" d="
M466.714 388.8
L490.629 388.8
L490.629 269.692
L466.714 269.692
z
" style="fill:#008000;opacity:0.6;stroke:#000000;stroke-linejoin:miter;"/>
   </g>
   <g id="patch_11">
    <path clip-path="url(#pad36b945f0)" d="
M514.543 388.8
L538.457 388.8
L538.457 231.824
L514.543 231.824
z
" style="fill:#008000;opacity:0.6;stroke:#000000;stroke-linejoin:miter;"/>
   </g>
   <g id="patch_12">
    <path clip-path="url(#pad36b945f0)" d="
M562.371 388.8
L586.286 388.8
L586.286 193.288
L562.371 193.288
z
" style="fill:#008000;opacity:0.6;stroke:#000000;stroke-linejoin:miter;"/>
   </g>
   <g id="patch_13">
    <path clip-path="url(#pad36b945f0)" d="
M610.2 388.8
L634.114 388.8
L634.114 153.668
L610.2 153.668
z
" style="fill:#008000;opacity:0.6;stroke:#000000;stroke-linejoin:miter;"/>
   </g>
   <g id="patch_14">
    <path clip-path="url(#pad36b945f0)" d="
M658.029 388.8
L681.943 388.8
L681.943 109.31
L658.029 109.31
z
" style="fill:#008000;opacity:0.6;stroke:#000000;stroke-linejoin:miter;"/>
   </g>
   <g id="patch_15">
    <path clip-path="url(#pad36b945f0)" d="
M705.857 388.8
L729.771 388.8
L729.771 74.6624
L705.857 74.6624
z
" style="fill:#008000;opacity:0.6;stroke:#000000;stroke-linejoin:miter;"/>
   </g>
   <g id="patch_16">
    <path d="
M108 43.2
L777.6 43.2" style="fill:none;stroke:#000000;stroke-linecap:square;stroke-linejoin:miter;"/>
   </g>
   <g id="patch_17">
    <path d="
M777.6 388.8
L777.6 43.2" style="fill:none;stroke:#000000;stroke-linecap:square;stroke-linejoin:miter;"/>
   </g>
   <g id="patch_18">
    <path d="
M108 388.8
L777.6 388.8" style="fill:none;stroke:#000000;stroke-linecap:square;stroke-linejoin:miter;"/>
   </g>
   <g id="patch_19">
    <path d="
M108 388.8
L108 43.2" style="fill:none;stroke:#000000;stroke-linecap:square;stroke-linejoin:miter;"/>
   </g>
   <g id="matplotlib.axis_1">
    <g id="xtick_1">
     <g id="line2d_1">
      <path clip-path="url(#pad36b945f0)" d="
M131.914 388.8
L131.914 43.2" style="fill:none;stroke:#000000;stroke-dasharray:1.000000,3.000000;stroke-dashoffset:0.0;stroke-width:0.5;"/>
     </g>
     <g id="line2d_2">
      <defs>
       <path d="
M0 0
L0 -4" id="m93b0483c22" style="stroke:#000000;stroke-width:0.5;"/>
      </defs>
      <g>
       <use style="stroke:#000000;stroke-width:0.5;" x="131.914285714" xlink:href="#m93b0483c22" y="388.8"/>
      </g>
     </g>
     <g id="line2d_3">
      <defs>
       <path d="
M0 0
L0 4" id="m741efc42ff" style="stroke:#000000;stroke-width:0.5;"/>
      </defs>
      <g>
       <use style="stroke:#000000;stroke-width:0.5;" x="131.914285714" xlink:href="#m741efc42ff" y="43.2"/>
      </g>
     </g>
     <g id="text_1">
      <!-- 2001年 -->
      <defs>
       <path d="
M95.5 12.7969
Q96.0938 12.0938 96.0938 11.7969
Q96.0938 11.5 95.0938 11.5
L56.7969 11.5
Q56.7969 -1.59375 56.9062 -6.40625
L57.0938 -13.7969
Q57.0938 -15.4062 55 -16.4062
Q52.9062 -17.4062 52.2969 -17.4062
Q51.7031 -17.4062 51.7031 -15.9531
Q51.7031 -14.5 51.8438 -7.5
Q52 -0.5 52 11.5
L13.7031 11.5
Q9.79688 11.5 7 10.4062
L4.20312 14.0938
Q9 13.7031 11.5 13.7031
L23.7031 13.7031
L23.7031 31.5938
Q23.7031 38.2031 23.4062 43.5
L29.4062 39.0938
L52 39.0938
L52 60.5938
L27.5938 60.5938
Q17.0938 45.7969 8 36.9062
L6.70312 37.7969
Q22.5 57.9062 30.7031 77
L38 73.2969
Q38.7969 72.9062 38.7969 72.5938
Q38.7969 72.2969 37.9375 72.0469
Q37.0938 71.7969 36.1406 71.25
Q35.2031 70.7031 34.5469 70.1406
Q33.9062 69.5938 32.4062 67.3438
Q30.9062 65.0938 29.2031 62.7969
L82 62.7969
L86.5938 68.5
L92.7031 61.9062
Q93.4062 61.2031 93.4062 60.8906
Q93.4062 60.5938 92.2031 60.5938
L56.7969 60.5938
L56.7969 39.0938
L74.2969 39.0938
L78.5938 44.4062
L84.5938 38.0938
Q85.2031 37.5 85.2031 37.2031
Q85.2031 36.9062 84.0938 36.9062
L56.7969 36.9062
L56.7969 13.7031
L85 13.7031
L89.7969 19
z

M52 13.7031
L52 36.9062
L28.4062 36.9062
L28.4062 13.7031
z
" id="STSong-5e74"/>
       <path d="
M42.5938 -0.296875
Q35.4062 0 22.2031 0
Q9.29688 0 2.20312 -0.296875
Q4.09375 3.59375 7 7.09375
Q9.90625 10.5938 16.2969 17
Q25.5938 26.2969 29.8906 32.8438
Q34.2031 39.4062 34.2031 46.0938
Q34.2031 51.5938 30.75 55
Q27.2969 58.4062 22.2031 58.4062
Q17.2031 58.4062 13.0938 54.9531
Q9 51.5 7.40625 45.2031
L5.09375 45.5938
Q6.70312 54.0938 11.7969 58.7969
Q16.9062 63.5 24.2031 63.5
Q31.5 63.5 36.5938 58.6406
Q41.7031 53.7969 41.7031 47
Q41.7031 40.2031 36.9531 34.25
Q32.2031 28.2969 22.5938 19.4062
Q17.5 14.7031 9.90625 5.29688
L33.4062 5.29688
Q37.2031 5.29688 38.75 6.64062
Q40.2969 8 42 12.5
L44.0938 12.5
z
" id="STSong-32"/>
       <path d="
M35.5 -0.296875
Q30.2969 0 23.7969 0
Q17.2969 0 12.0938 -0.296875
L12.0938 1.29688
L17.2969 2.20312
Q20.7969 2.90625 20.7969 6.09375
L20.7969 55.5
L8.90625 47.7969
L7.5 49.7031
Q14.4062 54.2031 24.0938 63.5
L27.4062 63.5
L27.4062 6.09375
Q27.4062 2.70312 30.9062 2.09375
L35.5 1.29688
z
" id="STSong-31"/>
       <path d="
M23.7031 63.5
Q32 63.5 38.0469 54.1406
Q44.0938 44.7969 44.0938 30.9062
Q44.0938 17.0938 38.0469 7.75
Q32 -1.59375 23.7031 -1.59375
Q15.7031 -1.59375 9.5 7.65625
Q3.29688 16.9062 3.29688 30.9062
Q3.29688 44.7969 9.34375 54.1406
Q15.4062 63.5 23.7031 63.5
M23.7031 0.703125
Q31.0938 0.703125 33.9375 8.04688
Q36.7969 15.4062 36.7969 30.9062
Q36.7969 46.4062 33.9375 53.7969
Q31.0938 61.2031 23.7031 61.2031
Q16.2969 61.2031 13.4375 53.7969
Q10.5938 46.4062 10.5938 30.9062
Q10.5938 0.703125 23.7031 0.703125" id="STSong-30"/>
      </defs>
      <g transform="translate(120.108364604 427.469887423)rotate(-45.0)scale(0.14 -0.14)">
       <use xlink:href="#STSong-32"/>
       <use x="46.8999938965" xlink:href="#STSong-30"/>
       <use x="93.799987793" xlink:href="#STSong-30"/>
       <use x="140.699981689" xlink:href="#STSong-31"/>
       <use x="187.599975586" xlink:href="#STSong-5e74"/>
      </g>
     </g>
    </g>
    <g id="xtick_2">
     <g id="line2d_4">
      <path clip-path="url(#pad36b945f0)" d="
M179.743 388.8
L179.743 43.2" style="fill:none;stroke:#000000;stroke-dasharray:1.000000,3.000000;stroke-dashoffset:0.0;stroke-width:0.5;"/>
     </g>
     <g id="line2d_5">
      <g>
       <use style="stroke:#000000;stroke-width:0.5;" x="179.742857143" xlink:href="#m93b0483c22" y="388.8"/>
      </g>
     </g>
     <g id="line2d_6">
      <g>
       <use style="stroke:#000000;stroke-width:0.5;" x="179.742857143" xlink:href="#m741efc42ff" y="43.2"/>
      </g>
     </g>
     <g id="text_2">
      <!-- 2002年 -->
      <g transform="translate(167.936936033 427.469887423)rotate(-45.0)scale(0.14 -0.14)">
       <use xlink:href="#STSong-32"/>
       <use x="46.8999938965" xlink:href="#STSong-30"/>
       <use x="93.799987793" xlink:href="#STSong-30"/>
       <use x="140.699981689" xlink:href="#STSong-32"/>
       <use x="187.599975586" xlink:href="#STSong-5e74"/>
      </g>
     </g>
    </g>
    <g id="xtick_3">
     <g id="line2d_7">
      <path clip-path="url(#pad36b945f0)" d="
M227.571 388.8
L227.571 43.2" style="fill:none;stroke:#000000;stroke-dasharray:1.000000,3.000000;stroke-dashoffset:0.0;stroke-width:0.5;"/>
     </g>
     <g id="line2d_8">
      <g>
       <use style="stroke:#000000;stroke-width:0.5;" x="227.571428571" xlink:href="#m93b0483c22" y="388.8"/>
      </g>
     </g>
     <g id="line2d_9">
      <g>
       <use style="stroke:#000000;stroke-width:0.5;" x="227.571428571" xlink:href="#m741efc42ff" y="43.2"/>
      </g>
     </g>
     <g id="text_3">
      <!-- 2003年 -->
      <defs>
       <path d="
M9.40625 48.9062
L7.59375 49.9062
Q10.5 56.7969 14.5938 60.1406
Q18.7031 63.5 24.9062 63.5
Q30.5 63.5 34.2969 60.2969
Q38.0938 57.0938 38.0938 53.2031
Q38.0938 49.2969 35.4375 45.7969
Q32.7969 42.2969 27.2031 38.0938
Q34.5 38.5938 38.8906 33.7969
Q43.2969 29 43.2969 21.5
Q43.2969 11.7969 36.3906 5.09375
Q29.5 -1.59375 18.7969 -1.59375
Q11.9062 -1.59375 8.29688 0.046875
Q4.70312 1.70312 4.70312 3.90625
Q4.70312 4.90625 5.64062 5.75
Q6.59375 6.59375 7.70312 6.59375
Q9.40625 6.59375 11.5938 4.79688
Q17.2031 0.59375 21.0938 0.59375
Q27.2031 0.59375 31.8438 5.89062
Q36.5 11.2031 36.5 18.7969
Q36.5 25.2031 33.3438 29.3438
Q30.2031 33.5 25.4062 33.5
Q21.7031 33.5 17.7969 30.0938
L16.7031 32
Q18.7031 33.7969 21.0938 35.5938
Q32.0938 43.7031 32.0938 49.2969
Q32.0938 53.4062 29.3438 55.9062
Q26.5938 58.4062 22.5 58.4062
Q18.5 58.4062 14.9531 55.9531
Q11.4062 53.5 9.40625 48.9062" id="STSong-33"/>
      </defs>
      <g transform="translate(215.765507461 427.469887423)rotate(-45.0)scale(0.14 -0.14)">
       <use xlink:href="#STSong-32"/>
       <use x="46.8999938965" xlink:href="#STSong-30"/>
       <use x="93.799987793" xlink:href="#STSong-30"/>
       <use x="140.699981689" xlink:href="#STSong-33"/>
       <use x="187.599975586" xlink:href="#STSong-5e74"/>
      </g>
     </g>
    </g>
    <g id="xtick_4">
     <g id="line2d_10">
      <path clip-path="url(#pad36b945f0)" d="
M275.4 388.8
L275.4 43.2" style="fill:none;stroke:#000000;stroke-dasharray:1.000000,3.000000;stroke-dashoffset:0.0;stroke-width:0.5;"/>
     </g>
     <g id="line2d_11">
      <g>
       <use style="stroke:#000000;stroke-width:0.5;" x="275.4" xlink:href="#m93b0483c22" y="388.8"/>
      </g>
     </g>
     <g id="line2d_12">
      <g>
       <use style="stroke:#000000;stroke-width:0.5;" x="275.4" xlink:href="#m741efc42ff" y="43.2"/>
      </g>
     </g>
     <g id="text_4">
      <!-- 2004年 -->
      <defs>
       <path d="
M32.5938 63.5
L35 63.5
L35 22
L45.5938 22
L45.5938 17.4062
L35 17.4062
L35 -1.59375
L28.4062 -1.59375
L28.4062 17.4062
L2.79688 17.4062
L2.79688 20.7031
L14.7031 38.0938
z

M28.4062 22
L28.4062 52.7031
Q14.7969 33.7969 7.59375 22
z
" id="STSong-34"/>
      </defs>
      <g transform="translate(263.59407889 427.469887423)rotate(-45.0)scale(0.14 -0.14)">
       <use xlink:href="#STSong-32"/>
       <use x="46.8999938965" xlink:href="#STSong-30"/>
       <use x="93.799987793" xlink:href="#STSong-30"/>
       <use x="140.699981689" xlink:href="#STSong-34"/>
       <use x="187.599975586" xlink:href="#STSong-5e74"/>
      </g>
     </g>
    </g>
    <g id="xtick_5">
     <g id="line2d_13">
      <path clip-path="url(#pad36b945f0)" d="
M323.229 388.8
L323.229 43.2" style="fill:none;stroke:#000000;stroke-dasharray:1.000000,3.000000;stroke-dashoffset:0.0;stroke-width:0.5;"/>
     </g>
     <g id="line2d_14">
      <g>
       <use style="stroke:#000000;stroke-width:0.5;" x="323.228571429" xlink:href="#m93b0483c22" y="388.8"/>
      </g>
     </g>
     <g id="line2d_15">
      <g>
       <use style="stroke:#000000;stroke-width:0.5;" x="323.228571429" xlink:href="#m741efc42ff" y="43.2"/>
      </g>
     </g>
     <g id="text_5">
      <!-- 2005年 -->
      <defs>
       <path d="
M38 56.5938
L24 56.5938
Q16.2031 56.5938 15.4062 56.2969
L14.0938 38
Q18.5 40.0938 23.0938 40.0938
Q31.2969 40.0938 37 34.5
Q42.7031 28.9062 42.7031 19.9062
Q42.7031 9.90625 35.6406 4.15625
Q28.5938 -1.59375 19.5938 -1.59375
Q14.5938 -1.59375 10.3906 0.15625
Q6.20312 1.90625 6.20312 4
Q6.20312 5 7.09375 6.04688
Q8 7.09375 9.59375 7.09375
Q10.7031 7.09375 11.4062 6.59375
Q18.4062 1.29688 22.7031 1.29688
Q28.2969 1.29688 32.5938 6.14062
Q36.9062 11 36.9062 17.5938
Q36.9062 24.5938 32.5469 29.25
Q28.2031 33.9062 21.7969 33.9062
Q19 33.9062 16.5469 33
Q14.0938 32.0938 13 30.5
L11.2969 30.5
L13.2031 62.5
L24.0938 62.5
Q31.5938 62.5 34 62.7031
Q36.4062 62.9062 37.4062 64.2031
L38.9062 64.2031
z
" id="STSong-35"/>
      </defs>
      <g transform="translate(311.422650319 427.469887423)rotate(-45.0)scale(0.14 -0.14)">
       <use xlink:href="#STSong-32"/>
       <use x="46.8999938965" xlink:href="#STSong-30"/>
       <use x="93.799987793" xlink:href="#STSong-30"/>
       <use x="140.699981689" xlink:href="#STSong-35"/>
       <use x="187.599975586" xlink:href="#STSong-5e74"/>
      </g>
     </g>
    </g>
    <g id="xtick_6">
     <g id="line2d_16">
      <path clip-path="url(#pad36b945f0)" d="
M371.057 388.8
L371.057 43.2" style="fill:none;stroke:#000000;stroke-dasharray:1.000000,3.000000;stroke-dashoffset:0.0;stroke-width:0.5;"/>
     </g>
     <g id="line2d_17">
      <g>
       <use style="stroke:#000000;stroke-width:0.5;" x="371.057142857" xlink:href="#m93b0483c22" y="388.8"/>
      </g>
     </g>
     <g id="line2d_18">
      <g>
       <use style="stroke:#000000;stroke-width:0.5;" x="371.057142857" xlink:href="#m741efc42ff" y="43.2"/>
      </g>
     </g>
     <g id="text_6">
      <!-- 2006年 -->
      <defs>
       <path d="
M38.4062 63.7969
L39.2031 61.9062
Q26.7031 57.2031 19.25 45.8438
Q11.7969 34.5 11.7969 21.5
Q11.7969 12.9062 15.3906 6.75
Q19 0.59375 24.2031 0.59375
Q35.4062 0.59375 35.4062 18.4062
Q35.4062 25.9062 32.5 30.0938
Q29.5938 34.2969 25.2031 34.2969
Q23.5 34.2969 21.9062 33.5938
L20.7969 35.2031
Q24 36.5938 27.2969 36.5938
Q33.9062 36.5938 38.25 31.5938
Q42.5938 26.5938 42.5938 17.9062
Q42.5938 9.59375 37.4375 4
Q32.2969 -1.59375 24.0938 -1.59375
Q15.5938 -1.59375 10.25 5.04688
Q4.90625 11.7031 4.90625 23.0938
Q4.90625 36.9062 13.9531 48.25
Q23 59.5938 38.4062 63.7969" id="STSong-36"/>
      </defs>
      <g transform="translate(359.251221747 427.469887423)rotate(-45.0)scale(0.14 -0.14)">
       <use xlink:href="#STSong-32"/>
       <use x="46.8999938965" xlink:href="#STSong-30"/>
       <use x="93.799987793" xlink:href="#STSong-30"/>
       <use x="140.699981689" xlink:href="#STSong-36"/>
       <use x="187.599975586" xlink:href="#STSong-5e74"/>
      </g>
     </g>
    </g>
    <g id="xtick_7">
     <g id="line2d_19">
      <path clip-path="url(#pad36b945f0)" d="
M418.886 388.8
L418.886 43.2" style="fill:none;stroke:#000000;stroke-dasharray:1.000000,3.000000;stroke-dashoffset:0.0;stroke-width:0.5;"/>
     </g>
     <g id="line2d_20">
      <g>
       <use style="stroke:#000000;stroke-width:0.5;" x="418.885714286" xlink:href="#m93b0483c22" y="388.8"/>
      </g>
     </g>
     <g id="line2d_21">
      <g>
       <use style="stroke:#000000;stroke-width:0.5;" x="418.885714286" xlink:href="#m741efc42ff" y="43.2"/>
      </g>
     </g>
     <g id="text_7">
      <!-- 2007年 -->
      <defs>
       <path d="
M4.59375 62.5
L43.0938 62.5
L43.0938 60.7969
Q39.7031 54.7969 30.9531 30.1406
Q22.2031 5.5 21.2969 0
L18 0
Q22.7969 20.7031 37.2969 56.4062
L10.2969 56.4062
Q7.79688 56.4062 7.59375 55.0938
L6.79688 50.9062
L4.59375 50.9062
z
" id="STSong-37"/>
      </defs>
      <g transform="translate(407.079793176 427.469887423)rotate(-45.0)scale(0.14 -0.14)">
       <use xlink:href="#STSong-32"/>
       <use x="46.8999938965" xlink:href="#STSong-30"/>
       <use x="93.799987793" xlink:href="#STSong-30"/>
       <use x="140.699981689" xlink:href="#STSong-37"/>
       <use x="187.599975586" xlink:href="#STSong-5e74"/>
      </g>
     </g>
    </g>
    <g id="xtick_8">
     <g id="line2d_22">
      <path clip-path="url(#pad36b945f0)" d="
M466.714 388.8
L466.714 43.2" style="fill:none;stroke:#000000;stroke-dasharray:1.000000,3.000000;stroke-dashoffset:0.0;stroke-width:0.5;"/>
     </g>
     <g id="line2d_23">
      <g>
       <use style="stroke:#000000;stroke-width:0.5;" x="466.714285714" xlink:href="#m93b0483c22" y="388.8"/>
      </g>
     </g>
     <g id="line2d_24">
      <g>
       <use style="stroke:#000000;stroke-width:0.5;" x="466.714285714" xlink:href="#m741efc42ff" y="43.2"/>
      </g>
     </g>
     <g id="text_8">
      <!-- 2008年 -->
      <defs>
       <path d="
M19.7969 31.2031
Q7.70312 37.2031 7.70312 47.5
Q7.70312 53.7031 12.6406 58.5938
Q17.5938 63.5 24.2969 63.5
Q31.9062 63.5 36.5938 59.3906
Q41.2969 55.2969 41.2969 49.0938
Q41.2969 43.7031 38.2969 40.3906
Q35.2969 37.0938 29.7031 34.2969
Q38.9062 29.9062 41.5 25.4062
Q44.0938 20.9062 44.0938 16.4062
Q44.0938 9.09375 38.6406 3.75
Q33.2031 -1.59375 25.0938 -1.59375
Q16.7031 -1.59375 11.7031 3.04688
Q6.70312 7.70312 6.70312 14.7969
Q6.70312 19.0938 8.70312 23.25
Q10.7031 27.4062 19.7969 31.2031
M27.5 35.5
Q31.5938 37.4062 33.7969 41.0469
Q36 44.7031 36 49
Q36 54.2969 32.9531 57.75
Q29.9062 61.2031 24.5 61.2031
Q19.5938 61.2031 16.5 57.8438
Q13.4062 54.5 13.4062 49.5938
Q13.4062 47.0938 14.2969 44.6875
Q15.2031 42.2969 19.25 39.5
Q23.2969 36.7031 27.5 35.5
M22.2031 30.0938
Q17.0938 27.5938 14.8906 23.9375
Q12.7031 20.2969 12.7031 14.2031
Q12.7031 8.09375 16.2031 4.4375
Q19.7031 0.796875 25 0.796875
Q30.5 0.796875 34.1406 4.4375
Q37.7969 8.09375 37.7969 13.7969
Q37.7969 19.7969 34.1406 23.3906
Q30.5 27 22.2031 30.0938" id="STSong-38"/>
      </defs>
      <g transform="translate(454.908364604 427.469887423)rotate(-45.0)scale(0.14 -0.14)">
       <use xlink:href="#STSong-32"/>
       <use x="46.8999938965" xlink:href="#STSong-30"/>
       <use x="93.799987793" xlink:href="#STSong-30"/>
       <use x="140.699981689" xlink:href="#STSong-38"/>
       <use x="187.599975586" xlink:href="#STSong-5e74"/>
      </g>
     </g>
    </g>
    <g id="xtick_9">
     <g id="line2d_25">
      <path clip-path="url(#pad36b945f0)" d="
M514.543 388.8
L514.543 43.2" style="fill:none;stroke:#000000;stroke-dasharray:1.000000,3.000000;stroke-dashoffset:0.0;stroke-width:0.5;"/>
     </g>
     <g id="line2d_26">
      <g>
       <use style="stroke:#000000;stroke-width:0.5;" x="514.542857143" xlink:href="#m93b0483c22" y="388.8"/>
      </g>
     </g>
     <g id="line2d_27">
      <g>
       <use style="stroke:#000000;stroke-width:0.5;" x="514.542857143" xlink:href="#m741efc42ff" y="43.2"/>
      </g>
     </g>
     <g id="text_9">
      <!-- 2009年 -->
      <defs>
       <path d="
M26.2031 25.7969
Q23.4062 24.2969 20.2969 24.2969
Q13.9062 24.2969 9.15625 29.8438
Q4.40625 35.4062 4.40625 43.5938
Q4.40625 52 9.79688 57.75
Q15.2031 63.5 22.9062 63.5
Q31.5938 63.5 36.8906 56.5938
Q42.2031 49.7031 42.2031 38.7031
Q42.2031 23.2031 32.75 11.7031
Q23.2969 0.203125 8.5 -1.90625
L8.09375 0.296875
Q20.7969 2.79688 27.9375 13.3906
Q35.0938 24 35.0938 39.5938
Q35.0938 50 31.5938 55.6406
Q28.0938 61.2969 22.0938 61.2969
Q17.5 61.2969 14.5938 56.1875
Q11.7031 51.0938 11.7031 42.7031
Q11.7031 35.7969 14.5 31.5938
Q17.2969 27.4062 21.9062 27.4062
Q23.5 27.4062 25.2969 27.9062
z
" id="STSong-39"/>
      </defs>
      <g transform="translate(502.736936033 427.469887423)rotate(-45.0)scale(0.14 -0.14)">
       <use xlink:href="#STSong-32"/>
       <use x="46.8999938965" xlink:href="#STSong-30"/>
       <use x="93.799987793" xlink:href="#STSong-30"/>
       <use x="140.699981689" xlink:href="#STSong-39"/>
       <use x="187.599975586" xlink:href="#STSong-5e74"/>
      </g>
     </g>
    </g>
    <g id="xtick_10">
     <g id="line2d_28">
      <path clip-path="url(#pad36b945f0)" d="
M562.371 388.8
L562.371 43.2" style="fill:none;stroke:#000000;stroke-dasharray:1.000000,3.000000;stroke-dashoffset:0.0;stroke-width:0.5;"/>
     </g>
     <g id="line2d_29">
      <g>
       <use style="stroke:#000000;stroke-width:0.5;" x="562.371428571" xlink:href="#m93b0483c22" y="388.8"/>
      </g>
     </g>
     <g id="line2d_30">
      <g>
       <use style="stroke:#000000;stroke-width:0.5;" x="562.371428571" xlink:href="#m741efc42ff" y="43.2"/>
      </g>
     </g>
     <g id="text_10">
      <!-- 2010年 -->
      <g transform="translate(550.565507461 427.469887423)rotate(-45.0)scale(0.14 -0.14)">
       <use xlink:href="#STSong-32"/>
       <use x="46.8999938965" xlink:href="#STSong-30"/>
       <use x="93.799987793" xlink:href="#STSong-31"/>
       <use x="140.699981689" xlink:href="#STSong-30"/>
       <use x="187.599975586" xlink:href="#STSong-5e74"/>
      </g>
     </g>
    </g>
    <g id="xtick_11">
     <g id="line2d_31">
      <path clip-path="url(#pad36b945f0)" d="
M610.2 388.8
L610.2 43.2" style="fill:none;stroke:#000000;stroke-dasharray:1.000000,3.000000;stroke-dashoffset:0.0;stroke-width:0.5;"/>
     </g>
     <g id="line2d_32">
      <g>
       <use style="stroke:#000000;stroke-width:0.5;" x="610.2" xlink:href="#m93b0483c22" y="388.8"/>
      </g>
     </g>
     <g id="line2d_33">
      <g>
       <use style="stroke:#000000;stroke-width:0.5;" x="610.2" xlink:href="#m741efc42ff" y="43.2"/>
      </g>
     </g>
     <g id="text_11">
      <!-- 2011年 -->
      <g transform="translate(598.39407889 427.469887423)rotate(-45.0)scale(0.14 -0.14)">
       <use xlink:href="#STSong-32"/>
       <use x="46.8999938965" xlink:href="#STSong-30"/>
       <use x="93.799987793" xlink:href="#STSong-31"/>
       <use x="140.699981689" xlink:href="#STSong-31"/>
       <use x="187.599975586" xlink:href="#STSong-5e74"/>
      </g>
     </g>
    </g>
    <g id="xtick_12">
     <g id="line2d_34">
      <path clip-path="url(#pad36b945f0)" d="
M658.029 388.8
L658.029 43.2" style="fill:none;stroke:#000000;stroke-dasharray:1.000000,3.000000;stroke-dashoffset:0.0;stroke-width:0.5;"/>
     </g>
     <g id="line2d_35">
      <g>
       <use style="stroke:#000000;stroke-width:0.5;" x="658.028571429" xlink:href="#m93b0483c22" y="388.8"/>
      </g>
     </g>
     <g id="line2d_36">
      <g>
       <use style="stroke:#000000;stroke-width:0.5;" x="658.028571429" xlink:href="#m741efc42ff" y="43.2"/>
      </g>
     </g>
     <g id="text_12">
      <!-- 2012年 -->
      <g transform="translate(646.222650319 427.469887423)rotate(-45.0)scale(0.14 -0.14)">
       <use xlink:href="#STSong-32"/>
       <use x="46.8999938965" xlink:href="#STSong-30"/>
       <use x="93.799987793" xlink:href="#STSong-31"/>
       <use x="140.699981689" xlink:href="#STSong-32"/>
       <use x="187.599975586" xlink:href="#STSong-5e74"/>
      </g>
     </g>
    </g>
    <g id="xtick_13">
     <g id="line2d_37">
      <path clip-path="url(#pad36b945f0)" d="
M705.857 388.8
L705.857 43.2" style="fill:none;stroke:#000000;stroke-dasharray:1.000000,3.000000;stroke-dashoffset:0.0;stroke-width:0.5;"/>
     </g>
     <g id="line2d_38">
      <g>
       <use style="stroke:#000000;stroke-width:0.5;" x="705.857142857" xlink:href="#m93b0483c22" y="388.8"/>
      </g>
     </g>
     <g id="line2d_39">
      <g>
       <use style="stroke:#000000;stroke-width:0.5;" x="705.857142857" xlink:href="#m741efc42ff" y="43.2"/>
      </g>
     </g>
     <g id="text_13">
      <!-- 2013年 -->
      <g transform="translate(694.051221747 427.469887423)rotate(-45.0)scale(0.14 -0.14)">
       <use xlink:href="#STSong-32"/>
       <use x="46.8999938965" xlink:href="#STSong-30"/>
       <use x="93.799987793" xlink:href="#STSong-31"/>
       <use x="140.699981689" xlink:href="#STSong-33"/>
       <use x="187.599975586" xlink:href="#STSong-5e74"/>
      </g>
     </g>
    </g>
    <g id="text_14">
     <!-- 全球风电累计装机容量：MW -->
     <defs>
      <path d="
M97.2969 35.0938
Q90 35.2031 87.7969 31.2969
Q87.5938 31 87.2969 31
Q86.2031 31 78.3438 36.5938
Q70.5 42.2031 63.8438 49.9531
Q57.2031 57.7031 51.7969 68.9062
Q50.7969 68.0938 50.5 67.7031
Q35.0938 48.4062 24.6875 39.5
Q14.2969 30.5938 3.09375 23.9062
L2.20312 25
Q32.5938 47.5 47.5938 76.0938
L54.7969 72.2969
Q56 71.7031 56 71.2031
Q56 70.7031 55.0469 70.5
Q54.0938 70.2969 53.4062 69.9062
Q60.7969 56.4062 73.3438 47.0469
Q85.9062 37.7031 97.2969 36.5
z

M91.2031 -9
Q92.5 -10.2031 92.5 -10.6406
Q92.5 -11.0938 90.7031 -11.0938
L15 -11.0938
Q11.2969 -11.0938 8.5 -12.0938
L5.70312 -8.5
Q10.4062 -8.90625 13 -8.90625
L46.5938 -8.90625
L46.5938 13.0938
L28.2969 13.0938
Q24.5938 13.0938 21.7969 12.0938
L19 15.7031
Q23.7031 15.2969 26.2969 15.2969
L46.5938 15.2969
L46.5938 33.2031
L30.2031 33.2031
Q26.5 33.2031 23.7031 32.2031
L20.9062 35.7969
Q25.5938 35.4062 28.2031 35.4062
L64.5938 35.4062
L68.4062 40.7969
L74.5 35.4062
Q75.7969 34.2031 75.7969 33.7031
Q75.7969 33.2031 74 33.2031
L51.5938 33.2031
L51.5938 15.2969
L67.2031 15.2969
L71.2969 20.9062
L77.7031 15.2969
Q79 14.2031 79 13.6406
Q79 13.0938 77.2031 13.0938
L51.5938 13.0938
L51.5938 -8.90625
L79.9062 -8.90625
L84.4062 -2.70312
z
" id="STSong-5168"/>
      <path d="
M49.5 35.0938
L61.7031 8.09375
L77.7969 49.2969
Q79.9062 54.7031 79.9062 57.2031
Q79.9062 59.9062 77.4062 60.4062
L73.2969 61.2031
L73.2969 62.7969
Q74.2969 62.5 81.0938 62.5
Q87.5938 62.5 89.2031 62.7969
L89.2031 61.2031
L86.2031 60.2969
Q84.7031 59.7969 83.8906 58.8906
Q83.0938 58 82.2969 55.7969
L60.5938 -2.20312
L58.5 -2.20312
L45.4062 26.5
L31.5 -2.20312
L29.4062 -2.20312
L7.09375 53.0938
Q5.20312 57.7031 4.34375 58.8906
Q3.5 60.0938 2 60.5
L-0.90625 61.2031
L-0.90625 62.7969
Q1.59375 62.5 8.90625 62.5
Q15.2969 62.5 18.9062 62.7969
L18.9062 61.2031
L14.2031 60.2969
Q13.4062 60.2031 13.4062 59.4062
Q13.4062 58.0938 15.5938 52.5938
L33.7031 7
L44.0938 29.2969
L33.7031 53.2031
Q31.7031 57.5938 30.7969 58.8438
Q29.9062 60.0938 28.5938 60.2969
L23.7031 61.2031
L23.7031 62.7969
Q26.5 62.5 39.2969 62.5
Q44.2969 62.5 46.5 62.7969
L46.5 61.2031
L40.7031 60.0938
Q39.7969 60 39.7969 59.0938
Q39.7969 58 42 52.7031
L48.0938 38.2031
L56 55.7969
Q56.5 56.7969 56.5 57.7969
Q56.5 59 55.75 59.75
Q55 60.5 54.2031 60.5938
L50.7969 61.2031
L50.7969 62.7969
Q53.2969 62.5 59.9062 62.5
Q67.0938 62.5 69 62.7969
L69 61.2031
L64.2969 60.2969
Q60.9062 59.5938 59.0938 55.7031
z
" id="STSong-57"/>
      <path d="
M44.2031 52.9062
Q45.0938 52.0938 45.0938 51.6406
Q45.0938 51.2031 43.7969 51.2031
L26 51.2031
L26 39.2031
Q31.5 37.4062 35.0938 35.3438
Q38.7031 33.2969 40 31.5938
Q41.2969 29.9062 41.2969 28
Q41.2969 26.0938 40.6406 24.9375
Q40 23.7969 39.2031 23.7969
Q37.4062 23.7969 36.25 26.5938
Q35.0938 29.4062 32.25 32.4062
Q29.4062 35.4062 26 37.0938
L26 7.09375
Q26 -3.90625 26.0938 -7.29688
L26.2031 -13.2969
Q26.2031 -15 24.1406 -15.75
Q22.0938 -16.5 21.5 -16.5
Q20.9062 -16.5 20.9062 -14.7031
L21.2031 -5.29688
Q21.4062 0.5 21.4062 7.29688
L21.4062 39.7031
Q16.0938 24.2969 4.59375 6.70312
L3.5 7.70312
Q14.2969 26.5 20.9062 51.2031
L13.2031 51.2031
Q9.29688 51.2031 6.5 50.0938
L3.70312 53.7969
Q7.5 53.4062 11 53.4062
L21.4062 53.4062
L21.4062 62.4062
Q21.4062 69.0938 21 77
L28.2969 73.2031
Q29.0938 72.7969 29.0938 72.3906
Q29.0938 72 28.5 71.5938
L26 69.9062
L26 53.4062
L34.2969 53.4062
L38 58.7031
z

M93.2969 12.5938
Q93.7031 3.90625 94.3438 1.25
Q95 -1.40625 96.9062 -2.79688
Q97.5 -3.20312 97.5 -3.75
Q97.5 -4.29688 96.2969 -6.64062
Q95.0938 -9 92.75 -10.0938
Q90.4062 -11.2031 84.6562 -11.2031
Q78.9062 -11.2031 77.0469 -10.5469
Q75.2031 -9.90625 74.6406 -7.59375
Q74.0938 -5.29688 74.0938 0.90625
L74.0938 64.7969
L55.7969 64.7969
L55.7969 29.5938
Q55.7969 11.4062 49.5 0.703125
Q43.2031 -10 31.4062 -16.5938
L30.7031 -15.5
Q41.2969 -7.40625 46.1406 2.4375
Q51 12.2969 51 29.2031
L51 71.2031
L56.5938 67.0938
L71.7969 67.0938
L75.0938 71.7969
L82.0938 66.5
Q82.5938 66.0938 82.5938 65.75
Q82.5938 65.4062 82 65.0938
L78.5938 63.2969
L78.5938 0.703125
Q78.5938 -3 79 -4.5
Q79.4062 -6 80.5938 -6.45312
Q81.7969 -6.90625 84.8906 -6.90625
Q88 -6.90625 89.25 -5.90625
Q90.5 -4.90625 91.0469 -1.09375
Q91.5938 2.70312 91.9062 12.5938
z
" id="STSong-673a"/>
      <path d="
M82.5 -0.296875
Q72.9062 0 68.2031 0
Q62 0 53.9062 -0.296875
L53.9062 1.29688
L59.9062 2.5
Q62.2031 3 62.7969 4
Q63.4062 5 63.4062 7.90625
L63.4062 54.5938
L41 -0.796875
L14.4062 58.9062
L14.4062 7.29688
Q14.4062 2.59375 17.4062 2.29688
L26.5938 1.29688
L26.5938 -0.296875
Q20.5938 0 13.7031 0
Q8.59375 0 0.703125 -0.296875
L0.703125 1.29688
L6.20312 2.29688
Q10 3 10.75 3.95312
Q11.5 4.90625 11.5 7.29688
L11.5 60.0938
L2.40625 61.2031
L2.40625 62.7969
Q4.09375 62.5 12 62.5
Q18.7031 62.5 21.2031 62.7969
L43.4062 13.2031
L63.5938 62.7969
Q68.5 62.5 73.4062 62.5
Q78.2031 62.5 82.4062 62.7969
L82.4062 61.2031
L76.2031 59.9062
Q73.2969 59.2969 72.1875 58.0938
Q71.0938 56.9062 71.0938 54
L71.0938 8.59375
Q71.0938 5.5 71.6406 4.45312
Q72.2031 3.40625 74 3
L82.5 1.29688
z
" id="STSong-4d"/>
      <path d="
M86.9062 69.2969
L84.2031 67.5938
L84.2031 53.5938
Q84.2031 49.7031 84.4062 47.7031
L84.7031 44.2969
Q84.7031 43.0938 82.7031 42.5
Q80.7031 41.9062 80.0938 41.9062
Q79.5 41.9062 79.5 43
L79.5 45
L20.7969 45
L20.7969 42.2969
Q20.7969 41 19.0469 40.5
Q17.2969 40 16.5469 40
Q15.7969 40 15.7969 41.5938
L16.2031 52.2969
L16.2031 67.9062
Q16.2031 73 15.7969 76.4062
L22.0938 71.7031
L77.7969 71.7031
L80.5938 75.5938
L86.9062 71
Q87.5 70.5938 87.5 70.1406
Q87.5 69.7031 86.9062 69.2969
M79.5 59.5
L79.5 69.5
L52.7031 69.5
L52.7031 59.5
z

M48 59.5
L48 69.5
L20.7969 69.5
L20.7969 59.5
z

M79.5 47.2031
L79.5 57.2969
L52.7031 57.2969
L52.7031 47.2031
z

M48 47.2031
L48 57.2969
L20.7969 57.2969
L20.7969 47.2031
z

M65.7969 25.2031
Q72.7969 22.9062 78.25 20
Q83.7031 17.0938 86.5 14.5469
Q89.2969 12 89.2969 8.95312
Q89.2969 5.90625 87 5.90625
Q86 5.90625 85.2969 6.54688
Q84.5938 7.20312 82.6406 9.95312
Q80.7031 12.7031 77.7031 15.4062
L53 13.7031
L53 -8.09375
Q53 -11 52.2969 -12.3906
Q51.5938 -13.7969 48.3438 -15.5469
Q45.0938 -17.2969 44.3438 -17.2969
Q43.5938 -17.2969 43.4062 -16.5938
Q42.7031 -14.0938 40.7031 -12.7969
Q38.7031 -11.5 32.5938 -9.79688
L32.5938 -8.29688
Q42.4062 -9.90625 44.7969 -9.90625
Q47.2031 -9.90625 47.75 -9.20312
Q48.2969 -8.5 48.2969 -6.70312
L48.2969 13.2031
L31.2969 11.7969
Q21 11 19.5 10.4531
Q18 9.90625 17.5 9.90625
Q17 9.90625 16.7031 10.5
L13.5938 16
Q16.7031 16 20.7969 16.8906
Q24.9062 17.7969 34.8438 21.4375
Q44.7969 25.0938 51.9062 28.7031
L32.2969 27.0938
Q24.2969 26.4062 21.7031 25.2969
Q21.2031 25.0938 20.8906 25.0938
Q20.5938 25.0938 20.5 25.2969
L16.5938 30.5
Q19.5 30.5 22.9531 31.5
Q26.4062 32.5 32.7031 36.2969
Q39 40.0938 43.5938 44.4062
L50.2031 40.9062
Q50.7031 40.5938 50.7031 40.3438
Q50.7031 40.0938 50 40
Q45.0938 39.5938 41.9062 37.7969
Q34.5938 33.7969 24.2969 29.5938
L55.9062 30.7969
Q65.5 35.7031 71.7031 40.7969
L78.2031 35.2031
Q78.7031 34.7969 78.7031 34.4375
Q78.7031 34.0938 77.8906 34.1875
Q77.0938 34.2969 76.2969 34.2969
Q72.5 34.2969 71 33.5
Q47.7969 22.7031 21.2031 14.9062
L76.5 17.0938
Q72.4062 20.5 65.2031 24.0938
z

M36.4062 2.5
Q36.7969 2.09375 36.7969 1.75
Q36.7969 1.40625 36 1.40625
Q31.5938 1.09375 26.7031 -1.90625
Q20.7969 -5.5 3.29688 -12.5938
L2.40625 -11.4062
Q22.4062 -1.5 30.7969 7.70312
z

M61.2969 7.5
Q69.0938 5.29688 77.0938 1.25
Q85.0938 -2.79688 87.3438 -5.34375
Q89.5938 -7.90625 89.5938 -10.4062
Q89.5938 -11.5938 89.0469 -12.4375
Q88.5 -13.2969 87.5 -13.2969
Q86.5 -13.2969 85.5 -12.5938
Q84.5 -11.9062 82.5938 -9.5
Q76.0938 -1.40625 60.7969 6.29688
z
" id="STSong-7d2f"/>
      <path d="
M96.7969 0.296875
Q95.7031 0.40625 94.7031 0.40625
Q90.5 0.40625 88.5938 -1.79688
Q88.4062 -2 88.0938 -2
Q86 -2 76.5469 11
Q67.0938 24 66.4062 51.7031
L65 51.7031
L65 -7.40625
Q65 -10.7031 64.2969 -12.0938
Q63.5938 -13.5 60.25 -15.3906
Q56.9062 -17.2969 56.4062 -17.2969
Q55.9062 -17.2969 55.5938 -15.6406
Q55.2969 -14 52.6406 -12.3906
Q50 -10.7969 42.7969 -8.70312
L43.0938 -7.20312
Q52.2969 -9 55.1406 -9
Q58 -9 59.2031 -8.39062
Q60.4062 -7.79688 60.4062 -5.5
L60.4062 22.5938
L45.4062 8.20312
Q40.2031 3.29688 39.2031 0.703125
Q38.9062 0 38.5469 0
Q38.2031 0 37.9062 0.203125
L33.2969 3.5
L60.4062 25
L60.4062 51.7031
L46.7969 51.7031
Q42.9062 51.7031 40.0938 50.5938
L37.2969 54.2969
Q42.0938 53.9062 44.5938 53.9062
L60.4062 53.9062
L60.4062 63.0938
Q60.4062 69.7969 60 77.7031
L67.0938 74.7031
Q68.2031 74.2031 68.2031 73.8906
Q68.2031 73.5938 67.2031 72.9062
L65 71.4062
L65 53.9062
L84.5938 53.9062
L88.7031 59
L94.2031 53.9062
Q95.2969 52.7969 95.2969 52.25
Q95.2969 51.7031 93.7969 51.7031
L68.2969 51.7031
Q69.2969 35 72.9062 26.2031
Q80.2969 34.5 86 43.5
L90.2969 39.7969
Q91.5 38.7031 91.5 38.2969
Q91.5 37.9062 90 37.5938
Q88.5 37.2969 87.0938 36.0938
L73.7031 24.5
Q77.5938 16.5938 84.3906 10
Q91.2031 3.40625 96.7969 1.5
z

M71.5938 69.7969
Q74.2031 69.2969 79.3906 66.6875
Q84.5938 64.0938 84.5938 60.9062
Q84.5938 59.5938 83.8906 58.5938
Q83.2031 57.5938 82.4531 57.5938
Q81.7031 57.5938 81.3438 58
Q81 58.4062 80.0938 60.1562
Q79.2031 61.9062 76.8438 64.4062
Q74.5 66.9062 71.2031 68.9062
z

M40.4062 16.9062
L14.9062 2.40625
Q9.70312 -0.59375 8.59375 -2.5
Q8.29688 -3.09375 8 -3.09375
Q7.70312 -3.09375 7.40625 -2.70312
L3.09375 2.59375
L18.5 9.09375
L18.5 34.2031
L14.2031 34.2031
Q10.7031 34.2031 7.90625 33.2031
L5.20312 36.7031
Q9.90625 36.2969 12.2031 36.2969
L18.5 36.2969
L18.5 61.2031
L13.7031 61.2031
Q9.79688 61.2031 7 60.0938
L4.20312 63.7969
Q9 63.4062 11.5 63.4062
L31 63.4062
L35 68.4062
L39.7969 63.2969
Q40.7031 62.4062 40.7031 61.7969
Q40.7031 61.2031 39.5 61.2031
L23.2031 61.2031
L23.2031 36.2969
L29.7031 36.2969
L33.2969 41.2031
L38.2969 36.2031
Q39.2031 35.2969 39.2031 34.75
Q39.2031 34.2031 38 34.2031
L23.2031 34.2031
L23.2031 11.0938
L39.7969 18.2031
z

M41.5938 44
Q46 40.9062 49 36.9062
Q52 32.9062 52 30.25
Q52 27.5938 51.0938 26.0938
Q50.2031 24.5938 49.0938 24.5938
Q47.0938 24.5938 46.7969 28.4062
Q46.4062 34.2969 44.5469 37.6875
Q42.7031 41.0938 40.5938 43.0938
z
" id="STSong-7403"/>
      <path d="
M90.0938 59.0938
Q91.2031 58 91.2031 57.4531
Q91.2031 56.9062 89.5938 56.9062
L64.5938 56.9062
L64.5938 39.4062
L76.7031 39.4062
L80.7031 44.9062
L86.0938 39.4062
Q87.2031 38.2031 87.2031 37.7031
Q87.2031 37.2031 85.7031 37.2031
L49.5 37.2031
Q45.5 37.2031 42.7969 36.0938
L40 39.7969
Q44.7969 39.4062 47.2969 39.4062
L60.0938 39.4062
L60.0938 56.9062
L47.9062 56.9062
Q44 56.9062 41.2031 55.7969
L38.4062 59.5
Q43.2031 59.0938 45.7031 59.0938
L60.0938 59.0938
L60.0938 62.7031
Q60.0938 69.4062 59.7031 77.2969
L67 73.4062
Q68.2031 72.7969 68.2031 72.3906
Q68.2031 72 67.2031 71.4062
L64.5938 69.7969
L64.5938 59.0938
L80.2969 59.0938
L84.7031 64.5
z

M36.7969 71.5
L34.9062 70.4062
L34.9062 34.5
Q34.9062 31.2031 35 29.7969
L35.0938 27.0938
Q35.0938 26.0938 33.3438 25.2969
Q31.5938 24.5 30.9375 24.5
Q30.2969 24.5 30.2969 26.5
L30.4062 34.7031
L30.4062 48.7969
L15.2969 38.7031
Q12.2969 36.7031 10.7031 34.2031
Q9.90625 33 9.34375 33
Q8.79688 33 7.59375 34
L3.90625 37
L30.4062 50.7031
L30.4062 68.5938
Q30.4062 72.2969 30.0938 77.2031
L36.7031 73.5
Q37.9062 72.9062 37.9062 72.5
Q37.9062 72.0938 36.7969 71.5
M9.90625 67.7031
Q16.7031 63.5938 18.8438 60.8438
Q21 58.0938 21 56.0469
Q21 54 20.2031 52.7031
Q19.4062 51.4062 18.25 51.4062
Q17.0938 51.4062 16.6875 51.9062
Q16.2969 52.4062 16 54.2031
Q15.0938 60 9.20312 66.9062
z

M43.7969 34
Q50.5 31.2969 52.5 29.5
Q54.5 27.7031 54.5 25.8906
Q54.5 24.0938 53.3906 22.7969
Q52.2969 21.5 50.7969 21.5
Q49.9062 21.5 49.2031 24.8438
Q48.5 28.2031 43.0938 33.2031
z

M95.2969 -9.40625
Q91.2969 -9.59375 89.3906 -10.5469
Q87.5 -11.5 86 -13.5938
Q85.7031 -14 85.2031 -14
Q84.2031 -14 75.6406 -9.34375
Q67.0938 -4.70312 60.6875 1.9375
Q54.2969 8.59375 49.7031 18.7031
L48.7969 18.7031
Q43.0938 13.7031 36.4062 9
L36.4062 -9.20312
L54.5938 -1.29688
L55.2969 -2.5
Q43.0938 -9.5 39.25 -12.0938
Q35.4062 -14.7031 34.6562 -15.7969
Q33.9062 -16.9062 33.6562 -16.9062
Q33.4062 -16.9062 32.9062 -16.5
L28 -12.5938
Q30.7031 -11.2031 31.3438 -10.2969
Q32 -9.40625 32 -7.29688
L32 6
Q17.5 -3.5 4.09375 -8.59375
L3.5 -7.20312
Q26.4062 4.40625 41.7969 18.7031
L14.9062 18.7031
Q10.7969 18.7031 8.20312 17.5938
L5.40625 21.2969
Q10.2031 20.9062 12.7031 20.9062
L82.5 20.9062
L86.9062 26.5938
L92 20.9062
Q92.9062 19.7969 92.9062 19.25
Q92.9062 18.7031 91.5938 18.7031
L51.7969 18.7031
Q57.0938 9.90625 63.2969 4.29688
Q75.5 15.7031 76.5 16.7031
L80.7031 13.5938
Q81.7031 12.7969 81.7031 12.3906
Q81.7031 12 79.6406 11.7031
Q77.5938 11.4062 74.0938 9.34375
Q70.5938 7.29688 64.4062 3.29688
Q76.2969 -6.90625 95.2969 -8.20312
z
" id="STSong-88c5"/>
      <path d="
M25 46.5
Q27.2969 46.5 29 44.7969
Q30.7031 43.0938 30.7031 40.7969
Q30.7031 38.5 29 36.8438
Q27.2969 35.2031 25 35.2031
Q22.7031 35.2031 21 36.8438
Q19.2969 38.5 19.2969 40.7969
Q19.2969 43.0938 21 44.7969
Q22.7031 46.5 25 46.5
M25 9.79688
Q27.2969 9.79688 29 8.09375
Q30.7031 6.40625 30.7031 4.09375
Q30.7031 1.79688 29 0.140625
Q27.2969 -1.5 25 -1.5
Q22.7031 -1.5 21 0.140625
Q19.2969 1.79688 19.2969 4.09375
Q19.2969 6.40625 21 8.09375
Q22.7031 9.79688 25 9.79688" id="STSong-ff1a"/>
      <path d="
M95.5938 42.2969
Q96.4062 41.5 96.4062 41.1406
Q96.4062 40.7969 95.4062 40.7969
L66.9062 40.7969
L66.9062 4.59375
Q66.9062 -3.90625 67.0469 -8.29688
Q67.2031 -12.7031 67.2031 -13
Q67.2031 -14.7969 65 -15.6406
Q62.7969 -16.5 62.1406 -16.5
Q61.5 -16.5 61.5 -14.5
L61.7031 -7.40625
Q61.9062 -3.5 61.9062 4.79688
L61.9062 40.7969
L44.5 40.7969
Q39.2031 40.7969 37.5938 40
L34.2969 43.2969
Q38.2031 43 42.2969 43
L61.9062 43
L61.9062 62.0938
Q61.9062 73.9062 61.7031 77.2031
L69.9062 73
Q70.9062 72.5 70.9062 72.1406
Q70.9062 71.7969 70.0938 71.2969
L66.9062 69.2031
L66.9062 43
L85.0938 43
L89.4062 49.0938
z

M16.4062 73
Q22 70.2031 25.3438 67.7969
Q28.7031 65.4062 29.7969 63.6562
Q30.9062 61.9062 30.9062 59.7031
Q30.9062 57.5 29.7969 55.9531
Q28.7031 54.4062 27.6406 54.4062
Q26.5938 54.4062 26.0938 55.0938
Q25.5938 55.7969 24.5469 59.25
Q23.5 62.7031 21.25 65.7031
Q19 68.7031 15.5938 71.9062
z

M43.5 11.4062
Q31.2969 -0.09375 27.8438 -4.09375
Q24.4062 -8.09375 23.0938 -11.4062
Q22.7969 -12.2031 22.4375 -12.2031
Q22.0938 -12.2031 21.7031 -11.7969
L16 -6.59375
Q19 -4.29688 19.7031 -2.89062
Q20.4062 -1.5 20.4062 2.5
L20.4062 41.5
L12.7031 41.2031
Q8.40625 41 6.29688 40.2969
L3.5 43.2969
Q5.09375 43.0938 6.54688 43.1406
Q8 43.2031 12.0938 43.2969
L20.2969 43.5938
L23.7031 48.0938
L30 43
Q31 42.2031 31 41.8906
Q31 41.5938 30 41.0938
L25.2031 38.7031
L25.2031 -0.59375
L42.2031 12.5938
z
" id="STSong-8ba1"/>
      <path d="
M83.2969 69.4062
L80.2031 67.5938
L80.2031 55.4062
L80.4062 49.0938
Q80.4062 48.0938 78.5 47.25
Q76.5938 46.4062 75.9375 46.4062
Q75.2969 46.4062 75.2969 47.9062
L75.2969 50.2031
L24.0938 50.2031
L24.0938 48.4062
Q24.0938 46.7031 22.0938 45.75
Q20.0938 44.7969 19.5938 44.7969
Q19.0938 44.7969 19.0938 46.0938
L19.2969 55.7031
L19.2969 67.5
Q19.2969 72.2031 19 76.5
L25.0938 71.5938
L74 71.5938
L77.2031 75.7969
L83.2969 71.2031
Q84 70.7031 84 70.25
Q84 69.7969 83.2969 69.4062
M75.2969 61.7969
L75.2969 70.2031
L24.0938 70.2031
L24.0938 61.7969
z

M75.2969 51.5938
L75.2969 60.4062
L24.0938 60.4062
L24.0938 51.5938
z

M95.5 42.2031
Q96.2031 41.5938 96.2031 41.1875
Q96.2031 40.7969 95.0938 40.7969
L12.7969 40.7969
Q8.90625 40.7969 6.09375 39.7031
L3.29688 42.5938
Q8.09375 42.2031 10.5938 42.2031
L85.2969 42.2031
L89.2031 47.7031
z

M94.2031 -12
Q94.7969 -12.5938 94.7969 -12.9375
Q94.7969 -13.2969 93.7969 -13.2969
L13.9062 -13.2969
Q10 -13.2969 7.20312 -14.4062
L4.40625 -11.5
Q9.20312 -11.9062 11.7031 -11.9062
L47.0938 -11.9062
L47.0938 -1.59375
L25.4062 -1.59375
Q21.5 -1.59375 18.7031 -2.70312
L15.9062 0.203125
Q20.7031 -0.203125 23.2031 -0.203125
L47.0938 -0.203125
L47.0938 9.90625
L23.7031 9.90625
L23.7031 7.70312
Q23.7031 6.70312 23.3438 6.25
Q23 5.79688 21.6406 5.29688
Q20.2969 4.79688 19.5938 4.79688
Q18.9062 4.79688 18.9062 5.79688
L19.2031 14.7031
L19.2031 28.2031
Q19.2031 32.9062 18.9062 37.2031
L24.5938 33.0938
L74 33.0938
L76.5 36.7969
L82.7031 32.7031
Q83.4062 32.2031 83.4062 31.7969
Q83.4062 31.4062 82.7031 31
L79.7969 29.2031
L79.7969 17.9062
Q79.7969 15 80 12.7969
L80.2969 9.20312
Q80.2969 8 78.3906 6.89062
Q76.5 5.79688 75.75 5.79688
Q75 5.79688 75 7.40625
L75 9.90625
L51.9062 9.90625
L51.9062 -0.203125
L75.7031 -0.203125
L79.4062 5.09375
L85.2031 -0.5
Q85.7969 -1.09375 85.7969 -1.34375
Q85.7969 -1.59375 84.5938 -1.59375
L51.9062 -1.59375
L51.9062 -11.9062
L84.2969 -11.9062
L88.0938 -6.5
z

M75 22.4062
L75 31.7031
L51.9062 31.7031
L51.9062 22.4062
z

M47.0938 22.4062
L47.0938 31.7031
L23.7031 31.7031
L23.7031 22.4062
z

M75 11.2969
L75 21
L51.9062 21
L51.9062 11.2969
z

M47.0938 11.2969
L47.0938 21
L23.7031 21
L23.7031 11.2969
z
" id="STSong-91cf"/>
      <path d="
M94.0938 14.2969
Q93.7031 8.79688 93.7031 3.79688
Q93.7031 -6.5 95.0469 -9.20312
Q96.4062 -11.9062 96.4062 -12.7031
Q96.4062 -13.5 95.7031 -13.5
Q93.7969 -13.5 86.2969 -8.79688
Q78.7969 -4.09375 75.3906 7.84375
Q72 19.7969 72 49.5
Q72 57.5938 72.2031 68.4062
L23.2031 68.4062
Q23.2969 38.5938 22.25 24.1406
Q21.2031 9.70312 17.3906 0.25
Q13.5938 -9.20312 5.09375 -15.7031
L4.29688 -14.7031
Q11.9062 -6.29688 15.0938 4.34375
Q18.2969 15 18.2969 42.5
Q18.2969 53.4062 17.7969 74.9062
L24.4062 70.5
L70.2969 70.5
L74 75.7969
L80.0938 71.0938
Q81 70.4062 81 70.0469
Q81 69.7031 80.2031 69.2031
L77 67.2969
Q76.5938 56.2969 76.5938 47.5938
Q76.5938 23.7031 79.6406 11.4531
Q82.7031 -0.796875 89.0938 -4.5
L92.7969 14.2969
z

M64.9062 54
Q65.9062 53.4062 65.9062 53
Q65.9062 52.5938 64.0938 52.1406
Q62.2969 51.7031 61.5 50.2031
Q57.9062 43.2031 51 31.7969
Q56.7969 24.5938 60.6875 18.7969
Q64.5938 13 65.3906 10.8906
Q66.2031 8.79688 66.2031 6.9375
Q66.2031 5.09375 65.2969 3.79688
Q64.4062 2.5 63.5 2.5
Q62.5938 2.5 61.75 3.89062
Q60.9062 5.29688 58.9531 10.5
Q57 15.7031 48.5938 28
Q37 10.5 23.5 -1.59375
L22.7031 -0.703125
Q36 14.0938 46.2031 31.4062
Q38.2969 42.7969 29.7031 52.9062
L30.7031 53.9062
Q40 45 48.2969 35.0938
Q53.2031 43.5938 58.4062 58.0938
z
" id="STSong-98ce"/>
      <path d="
M43 77.9062
Q50.2969 75.2969 52.8438 73.1406
Q55.4062 71 55.4062 69.25
Q55.4062 67.5 54.2031 66
Q53 64.5 52.0469 64.5
Q51.0938 64.5 50.6406 65
Q50.2031 65.5 49.2031 68.0938
Q48.2031 70.7031 46.9531 72.3906
Q45.7031 74.0938 42.4062 76.7969
z

M94.2031 63.0938
Q95 62.4062 95 62.0469
Q95 61.7031 94 61.5
Q90.7969 61.0938 87.75 58.9375
Q84.7031 56.7969 79 50.7969
L77.7031 51.5938
L84.4062 62.2031
L19.9062 62.2031
Q19.9062 55.0938 17.3438 52.5938
Q14.7969 50.0938 12.4062 50.0938
Q11.2031 50.0938 10.5 50.75
Q9.79688 51.4062 9.79688 52.4062
Q9.79688 54.0938 12.0469 55.5469
Q14.2969 57 15.8438 60.1406
Q17.4062 63.2969 18.2031 68
L19.5 68
L19.7969 64.4062
L83.9062 64.4062
L87.2031 69
z

M34.9062 56.5938
L40.2031 52.2969
Q41.0938 51.5938 41.0938 51.25
Q41.0938 50.9062 40.2969 50.7031
Q37.5 49.9062 36.25 49.3438
Q35 48.7969 34 47.7969
Q17.2969 32.7969 6 25.7969
L5.20312 26.7969
Q19.7031 37.7031 34.9062 56.5938
M60.0938 55
Q66.7031 52.5938 71.7031 50.0469
Q76.7031 47.5 79.75 45.0938
Q82.7969 42.7031 83.5938 41.25
Q84.4062 39.7969 84.4062 38.3906
Q84.4062 37 83.7031 35.75
Q83 34.5 82.2031 34.5
Q81.4062 34.5 80.7969 35
Q80.2031 35.5 79.2031 36.9062
Q75.2031 42.5 70.6406 46.25
Q66.0938 50 59.5938 53.7969
z

M97.5 16.9062
Q94.4062 16.9062 92.3438 15.9062
Q90.2969 14.9062 88.7031 12.2031
Q88.4062 11.7969 87.9062 11.7969
Q86.5938 11.7969 77.6406 16.6875
Q68.7031 21.5938 61.5938 28.1406
Q54.5 34.7031 50.7969 42.2031
Q49.7969 41.2031 48.9062 40.2031
Q35.5938 25.2969 24.6406 17.2969
Q13.7031 9.29688 3.09375 5.29688
L2.5 6.59375
Q18 15.4062 28.75 25.1562
Q39.5 34.9062 48.4062 49.2031
L54.2031 45.5938
Q55.2031 45 55.2031 44.6406
Q55.2031 44.2969 54 44
Q52.7969 43.7031 52.0938 43.2969
Q58.5938 33 71.1875 25.75
Q83.7969 18.5 97.2969 18.2969
z

M74.7031 15.2031
Q75.2031 14.9062 75.2031 14.5938
Q75.2031 14.2969 74.5938 13.9062
L72.4062 12.5
L72.4062 -0.59375
Q72.4062 -4.90625 72.5938 -8.20312
Q72.7969 -11.5 72.7969 -12.2031
Q72.7969 -13.9062 70.6875 -14.6562
Q68.5938 -15.4062 68.2969 -15.4062
Q67.5938 -15.4062 67.5938 -14.0938
L67.5938 -9.5
L32.5 -9.5
L32.5 -13.7031
Q32.5 -14.4062 32.1406 -14.7969
Q31.7969 -15.2031 30.3906 -15.7031
Q29 -16.2031 28.25 -16.2031
Q27.5 -16.2031 27.5 -14.4062
L27.7969 -4.5
L27.7969 11.5
Q27.7969 16 27.5 19.2969
L33 16.4062
L66.5 16.4062
L68.5938 19.2969
z

M67.5938 -7.29688
L67.5938 14.2031
L32.5 14.2031
L32.5 -7.29688
z
" id="STSong-5bb9"/>
      <path d="
M91.0938 9.20312
Q91 3.40625 91.2031 0.75
Q91.4062 -1.90625 92.0469 -2.95312
Q92.7031 -4 93.7969 -4.75
Q94.9062 -5.5 94.9062 -5.90625
Q94.9062 -6.70312 92.5938 -9.89062
Q90.2969 -13.0938 85.5469 -13.3906
Q80.7969 -13.7031 70.3906 -13.7031
Q60 -13.7031 54.75 -13.5
Q49.5 -13.2969 47.8906 -12.6875
Q46.2969 -12.0938 45.8906 -10.3438
Q45.5 -8.59375 45.5 -3.90625
L45.5 14.7031
L19.9062 14.7031
L19.9062 9
Q19.9062 8.09375 17.7031 6.64062
Q15.5 5.20312 15.1406 5.20312
Q14.7969 5.20312 14.7969 5.59375
Q14.7969 6 15 10.7969
Q15.2031 15.5938 15.2031 25
L15.2031 51.7969
Q15.2031 57.0938 14.9062 63.2969
L21.5 58
L45.5 58
L45.5 62.2031
Q45.5 72.0938 45.2031 77.2969
L53.7969 72.7031
Q54.5938 72.2969 54.5938 71.8438
Q54.5938 71.4062 53.5938 71.2031
L50.2031 70.4062
L50.2031 58
L75.5 58
L78.7031 62.5938
L85.9062 57.4062
Q86.2969 57.0938 86.2969 56.8438
Q86.2969 56.5938 85.7969 56.2969
L81.9062 53.5938
L81.9062 26.4062
Q81.9062 19.5938 82 16.5938
L82.2031 11.7969
Q82.2031 11 80.0938 9.59375
Q78 8.20312 77.5938 8.20312
Q77.2031 8.20312 77.2031 9.20312
L77.2031 14.7031
L50.2031 14.7031
L50.2031 -3.79688
Q50.2031 -7 50.9531 -7.95312
Q51.7031 -8.90625 54.6406 -9.15625
Q57.5938 -9.40625 69.8438 -9.40625
Q82.0938 -9.40625 84.4375 -8.90625
Q86.7969 -8.40625 87.6875 -5.15625
Q88.5938 -1.90625 89.5 9.29688
z

M77.2031 38.2969
L77.2031 55.7969
L50.2031 55.7969
L50.2031 38.2969
z

M45.5 38.2969
L45.5 55.7969
L19.9062 55.7969
L19.9062 38.2969
z

M77.2031 16.9062
L77.2031 36.0938
L50.2031 36.0938
L50.2031 16.9062
z

M45.5 16.9062
L45.5 36.0938
L19.9062 36.0938
L19.9062 16.9062
z
" id="STSong-7535"/>
     </defs>
     <g transform="translate(353.87921875 444.744366981)scale(0.14 -0.14)">
      <use xlink:href="#STSong-5168"/>
      <use x="99.9999847412" xlink:href="#STSong-7403"/>
      <use x="199.999969482" xlink:href="#STSong-98ce"/>
      <use x="299.999954224" xlink:href="#STSong-7535"/>
      <use x="399.999938965" xlink:href="#STSong-7d2f"/>
      <use x="499.999923706" xlink:href="#STSong-8ba1"/>
      <use x="599.999908447" xlink:href="#STSong-88c5"/>
      <use x="699.999893188" xlink:href="#STSong-673a"/>
      <use x="799.99987793" xlink:href="#STSong-5bb9"/>
      <use x="899.999862671" xlink:href="#STSong-91cf"/>
      <use x="999.999847412" xlink:href="#STSong-ff1a"/>
      <use x="1099.99983215" xlink:href="#STSong-4d"/>
      <use x="1183.29981995" xlink:href="#STSong-57"/>
     </g>
    </g>
   </g>
   <g id="matplotlib.axis_2">
    <g id="ytick_1">
     <g id="line2d_40">
      <path clip-path="url(#pad36b945f0)" d="
M108 388.8
L777.6 388.8" style="fill:none;stroke:#000000;stroke-dasharray:1.000000,3.000000;stroke-dashoffset:0.0;stroke-width:0.5;"/>
     </g>
     <g id="line2d_41">
      <defs>
       <path d="
M0 0
L4 0" id="m728421d6d4" style="stroke:#000000;stroke-width:0.5;"/>
      </defs>
      <g>
       <use style="stroke:#000000;stroke-width:0.5;" x="108.0" xlink:href="#m728421d6d4" y="388.8"/>
      </g>
     </g>
     <g id="line2d_42">
      <defs>
       <path d="
M0 0
L-4 0" id="mcb0005524f" style="stroke:#000000;stroke-width:0.5;"/>
      </defs>
      <g>
       <use style="stroke:#000000;stroke-width:0.5;" x="777.6" xlink:href="#mcb0005524f" y="388.8"/>
      </g>
     </g>
     <g id="text_15">
      <!-- 0 -->
      <defs>
       <path d="
M31.7812 66.4062
Q24.1719 66.4062 20.3281 58.9062
Q16.5 51.4219 16.5 36.375
Q16.5 21.3906 20.3281 13.8906
Q24.1719 6.39062 31.7812 6.39062
Q39.4531 6.39062 43.2812 13.8906
Q47.125 21.3906 47.125 36.375
Q47.125 51.4219 43.2812 58.9062
Q39.4531 66.4062 31.7812 66.4062
M31.7812 74.2188
Q44.0469 74.2188 50.5156 64.5156
Q56.9844 54.8281 56.9844 36.375
Q56.9844 17.9688 50.5156 8.26562
Q44.0469 -1.42188 31.7812 -1.42188
Q19.5312 -1.42188 13.0625 8.26562
Q6.59375 17.9688 6.59375 36.375
Q6.59375 54.8281 13.0625 64.5156
Q19.5312 74.2188 31.7812 74.2188" id="BitstreamVeraSans-Roman-30"/>
      </defs>
      <g transform="translate(97.953125 392.11125)scale(0.12 -0.12)">
       <use xlink:href="#BitstreamVeraSans-Roman-30"/>
      </g>
     </g>
    </g>
    <g id="ytick_2">
     <g id="line2d_43">
      <path clip-path="url(#pad36b945f0)" d="
M108 339.429
L777.6 339.429" style="fill:none;stroke:#000000;stroke-dasharray:1.000000,3.000000;stroke-dashoffset:0.0;stroke-width:0.5;"/>
     </g>
     <g id="line2d_44">
      <g>
       <use style="stroke:#000000;stroke-width:0.5;" x="108.0" xlink:href="#m728421d6d4" y="339.428571429"/>
      </g>
     </g>
     <g id="line2d_45">
      <g>
       <use style="stroke:#000000;stroke-width:0.5;" x="777.6" xlink:href="#mcb0005524f" y="339.428571429"/>
      </g>
     </g>
     <g id="text_16">
      <!-- 50000 -->
      <defs>
       <path d="
M10.7969 72.9062
L49.5156 72.9062
L49.5156 64.5938
L19.8281 64.5938
L19.8281 46.7344
Q21.9688 47.4688 24.1094 47.8281
Q26.2656 48.1875 28.4219 48.1875
Q40.625 48.1875 47.75 41.5
Q54.8906 34.8125 54.8906 23.3906
Q54.8906 11.625 47.5625 5.09375
Q40.2344 -1.42188 26.9062 -1.42188
Q22.3125 -1.42188 17.5469 -0.640625
Q12.7969 0.140625 7.71875 1.70312
L7.71875 11.625
Q12.1094 9.23438 16.7969 8.0625
Q21.4844 6.89062 26.7031 6.89062
Q35.1562 6.89062 40.0781 11.3281
Q45.0156 15.7656 45.0156 23.3906
Q45.0156 31 40.0781 35.4375
Q35.1562 39.8906 26.7031 39.8906
Q22.75 39.8906 18.8125 39.0156
Q14.8906 38.1406 10.7969 36.2812
z
" id="BitstreamVeraSans-Roman-35"/>
      </defs>
      <g transform="translate(67.548125 342.739821429)scale(0.12 -0.12)">
       <use xlink:href="#BitstreamVeraSans-Roman-35"/>
       <use x="63.623046875" xlink:href="#BitstreamVeraSans-Roman-30"/>
       <use x="127.24609375" xlink:href="#BitstreamVeraSans-Roman-30"/>
       <use x="190.869140625" xlink:href="#BitstreamVeraSans-Roman-30"/>
       <use x="254.4921875" xlink:href="#BitstreamVeraSans-Roman-30"/>
      </g>
     </g>
    </g>
    <g id="ytick_3">
     <g id="line2d_46">
      <path clip-path="url(#pad36b945f0)" d="
M108 290.057
L777.6 290.057" style="fill:none;stroke:#000000;stroke-dasharray:1.000000,3.000000;stroke-dashoffset:0.0;stroke-width:0.5;"/>
     </g>
     <g id="line2d_47">
      <g>
       <use style="stroke:#000000;stroke-width:0.5;" x="108.0" xlink:href="#m728421d6d4" y="290.057142857"/>
      </g>
     </g>
     <g id="line2d_48">
      <g>
       <use style="stroke:#000000;stroke-width:0.5;" x="777.6" xlink:href="#mcb0005524f" y="290.057142857"/>
      </g>
     </g>
     <g id="text_17">
      <!-- 100000 -->
      <defs>
       <path d="
M12.4062 8.29688
L28.5156 8.29688
L28.5156 63.9219
L10.9844 60.4062
L10.9844 69.3906
L28.4219 72.9062
L38.2812 72.9062
L38.2812 8.29688
L54.3906 8.29688
L54.3906 0
L12.4062 0
z
" id="BitstreamVeraSans-Roman-31"/>
      </defs>
      <g transform="translate(60.305 293.368392857)scale(0.12 -0.12)">
       <use xlink:href="#BitstreamVeraSans-Roman-31"/>
       <use x="63.623046875" xlink:href="#BitstreamVeraSans-Roman-30"/>
       <use x="127.24609375" xlink:href="#BitstreamVeraSans-Roman-30"/>
       <use x="190.869140625" xlink:href="#BitstreamVeraSans-Roman-30"/>
       <use x="254.4921875" xlink:href="#BitstreamVeraSans-Roman-30"/>
       <use x="318.115234375" xlink:href="#BitstreamVeraSans-Roman-30"/>
      </g>
     </g>
    </g>
    <g id="ytick_4">
     <g id="line2d_49">
      <path clip-path="url(#pad36b945f0)" d="
M108 240.686
L777.6 240.686" style="fill:none;stroke:#000000;stroke-dasharray:1.000000,3.000000;stroke-dashoffset:0.0;stroke-width:0.5;"/>
     </g>
     <g id="line2d_50">
      <g>
       <use style="stroke:#000000;stroke-width:0.5;" x="108.0" xlink:href="#m728421d6d4" y="240.685714286"/>
      </g>
     </g>
     <g id="line2d_51">
      <g>
       <use style="stroke:#000000;stroke-width:0.5;" x="777.6" xlink:href="#mcb0005524f" y="240.685714286"/>
      </g>
     </g>
     <g id="text_18">
      <!-- 150000 -->
      <g transform="translate(60.305 243.996964286)scale(0.12 -0.12)">
       <use xlink:href="#BitstreamVeraSans-Roman-31"/>
       <use x="63.623046875" xlink:href="#BitstreamVeraSans-Roman-35"/>
       <use x="127.24609375" xlink:href="#BitstreamVeraSans-Roman-30"/>
       <use x="190.869140625" xlink:href="#BitstreamVeraSans-Roman-30"/>
       <use x="254.4921875" xlink:href="#BitstreamVeraSans-Roman-30"/>
       <use x="318.115234375" xlink:href="#BitstreamVeraSans-Roman-30"/>
      </g>
     </g>
    </g>
    <g id="ytick_5">
     <g id="line2d_52">
      <path clip-path="url(#pad36b945f0)" d="
M108 191.314
L777.6 191.314" style="fill:none;stroke:#000000;stroke-dasharray:1.000000,3.000000;stroke-dashoffset:0.0;stroke-width:0.5;"/>
     </g>
     <g id="line2d_53">
      <g>
       <use style="stroke:#000000;stroke-width:0.5;" x="108.0" xlink:href="#m728421d6d4" y="191.314285714"/>
      </g>
     </g>
     <g id="line2d_54">
      <g>
       <use style="stroke:#000000;stroke-width:0.5;" x="777.6" xlink:href="#mcb0005524f" y="191.314285714"/>
      </g>
     </g>
     <g id="text_19">
      <!-- 200000 -->
      <defs>
       <path d="
M19.1875 8.29688
L53.6094 8.29688
L53.6094 0
L7.32812 0
L7.32812 8.29688
Q12.9375 14.1094 22.625 23.8906
Q32.3281 33.6875 34.8125 36.5312
Q39.5469 41.8438 41.4219 45.5312
Q43.3125 49.2188 43.3125 52.7812
Q43.3125 58.5938 39.2344 62.25
Q35.1562 65.9219 28.6094 65.9219
Q23.9688 65.9219 18.8125 64.3125
Q13.6719 62.7031 7.8125 59.4219
L7.8125 69.3906
Q13.7656 71.7812 18.9375 73
Q24.125 74.2188 28.4219 74.2188
Q39.75 74.2188 46.4844 68.5469
Q53.2188 62.8906 53.2188 53.4219
Q53.2188 48.9219 51.5312 44.8906
Q49.8594 40.875 45.4062 35.4062
Q44.1875 33.9844 37.6406 27.2188
Q31.1094 20.4531 19.1875 8.29688" id="BitstreamVeraSans-Roman-32"/>
      </defs>
      <g transform="translate(59.86625 194.625535714)scale(0.12 -0.12)">
       <use xlink:href="#BitstreamVeraSans-Roman-32"/>
       <use x="63.623046875" xlink:href="#BitstreamVeraSans-Roman-30"/>
       <use x="127.24609375" xlink:href="#BitstreamVeraSans-Roman-30"/>
       <use x="190.869140625" xlink:href="#BitstreamVeraSans-Roman-30"/>
       <use x="254.4921875" xlink:href="#BitstreamVeraSans-Roman-30"/>
       <use x="318.115234375" xlink:href="#BitstreamVeraSans-Roman-30"/>
      </g>
     </g>
    </g>
    <g id="ytick_6">
     <g id="line2d_55">
      <path clip-path="url(#pad36b945f0)" d="
M108 141.943
L777.6 141.943" style="fill:none;stroke:#000000;stroke-dasharray:1.000000,3.000000;stroke-dashoffset:0.0;stroke-width:0.5;"/>
     </g>
     <g id="line2d_56">
      <g>
       <use style="stroke:#000000;stroke-width:0.5;" x="108.0" xlink:href="#m728421d6d4" y="141.942857143"/>
      </g>
     </g>
     <g id="line2d_57">
      <g>
       <use style="stroke:#000000;stroke-width:0.5;" x="777.6" xlink:href="#mcb0005524f" y="141.942857143"/>
      </g>
     </g>
     <g id="text_20">
      <!-- 250000 -->
      <g transform="translate(59.86625 145.254107143)scale(0.12 -0.12)">
       <use xlink:href="#BitstreamVeraSans-Roman-32"/>
       <use x="63.623046875" xlink:href="#BitstreamVeraSans-Roman-35"/>
       <use x="127.24609375" xlink:href="#BitstreamVeraSans-Roman-30"/>
       <use x="190.869140625" xlink:href="#BitstreamVeraSans-Roman-30"/>
       <use x="254.4921875" xlink:href="#BitstreamVeraSans-Roman-30"/>
       <use x="318.115234375" xlink:href="#BitstreamVeraSans-Roman-30"/>
      </g>
     </g>
    </g>
    <g id="ytick_7">
     <g id="line2d_58">
      <path clip-path="url(#pad36b945f0)" d="
M108 92.5714
L777.6 92.5714" style="fill:none;stroke:#000000;stroke-dasharray:1.000000,3.000000;stroke-dashoffset:0.0;stroke-width:0.5;"/>
     </g>
     <g id="line2d_59">
      <g>
       <use style="stroke:#000000;stroke-width:0.5;" x="108.0" xlink:href="#m728421d6d4" y="92.5714285714"/>
      </g>
     </g>
     <g id="line2d_60">
      <g>
       <use style="stroke:#000000;stroke-width:0.5;" x="777.6" xlink:href="#mcb0005524f" y="92.5714285714"/>
      </g>
     </g>
     <g id="text_21">
      <!-- 300000 -->
      <defs>
       <path d="
M40.5781 39.3125
Q47.6562 37.7969 51.625 33
Q55.6094 28.2188 55.6094 21.1875
Q55.6094 10.4062 48.1875 4.48438
Q40.7656 -1.42188 27.0938 -1.42188
Q22.5156 -1.42188 17.6562 -0.515625
Q12.7969 0.390625 7.625 2.20312
L7.625 11.7188
Q11.7188 9.32812 16.5938 8.10938
Q21.4844 6.89062 26.8125 6.89062
Q36.0781 6.89062 40.9375 10.5469
Q45.7969 14.2031 45.7969 21.1875
Q45.7969 27.6406 41.2812 31.2656
Q36.7656 34.9062 28.7188 34.9062
L20.2188 34.9062
L20.2188 43.0156
L29.1094 43.0156
Q36.375 43.0156 40.2344 45.9219
Q44.0938 48.8281 44.0938 54.2969
Q44.0938 59.9062 40.1094 62.9062
Q36.1406 65.9219 28.7188 65.9219
Q24.6562 65.9219 20.0156 65.0312
Q15.375 64.1562 9.8125 62.3125
L9.8125 71.0938
Q15.4375 72.6562 20.3438 73.4375
Q25.25 74.2188 29.5938 74.2188
Q40.8281 74.2188 47.3594 69.1094
Q53.9062 64.0156 53.9062 55.3281
Q53.9062 49.2656 50.4375 45.0938
Q46.9688 40.9219 40.5781 39.3125" id="BitstreamVeraSans-Roman-33"/>
      </defs>
      <g transform="translate(59.901875 95.8826785714)scale(0.12 -0.12)">
       <use xlink:href="#BitstreamVeraSans-Roman-33"/>
       <use x="63.623046875" xlink:href="#BitstreamVeraSans-Roman-30"/>
       <use x="127.24609375" xlink:href="#BitstreamVeraSans-Roman-30"/>
       <use x="190.869140625" xlink:href="#BitstreamVeraSans-Roman-30"/>
       <use x="254.4921875" xlink:href="#BitstreamVeraSans-Roman-30"/>
       <use x="318.115234375" xlink:href="#BitstreamVeraSans-Roman-30"/>
      </g>
     </g>
    </g>
    <g id="ytick_8">
     <g id="line2d_61">
      <path clip-path="url(#pad36b945f0)" d="
M108 43.2
L777.6 43.2" style="fill:none;stroke:#000000;stroke-dasharray:1.000000,3.000000;stroke-dashoffset:0.0;stroke-width:0.5;"/>
     </g>
     <g id="line2d_62">
      <g>
       <use style="stroke:#000000;stroke-width:0.5;" x="108.0" xlink:href="#m728421d6d4" y="43.2"/>
      </g>
     </g>
     <g id="line2d_63">
      <g>
       <use style="stroke:#000000;stroke-width:0.5;" x="777.6" xlink:href="#mcb0005524f" y="43.2"/>
      </g>
     </g>
     <g id="text_22">
      <!-- 350000 -->
      <g transform="translate(59.901875 46.51125)scale(0.12 -0.12)">
       <use xlink:href="#BitstreamVeraSans-Roman-33"/>
       <use x="63.623046875" xlink:href="#BitstreamVeraSans-Roman-35"/>
       <use x="127.24609375" xlink:href="#BitstreamVeraSans-Roman-30"/>
       <use x="190.869140625" xlink:href="#BitstreamVeraSans-Roman-30"/>
       <use x="254.4921875" xlink:href="#BitstreamVeraSans-Roman-30"/>
       <use x="318.115234375" xlink:href="#BitstreamVeraSans-Roman-30"/>
      </g>
     </g>
    </g>
   </g>
  </g>
 </g>
 <defs>
  <clipPath id="pad36b945f0">
   <rect height="345.6" width="669.6" x="108.0" y="43.2"/>
  </clipPath>
 </defs>
</svg>
