<?xml version="1.0" encoding="utf-8" standalone="no"?>
<!DOCTYPE svg PUBLIC "-//W3C//DTD SVG 1.1//EN"
  "http://www.w3.org/Graphics/SVG/1.1/DTD/svg11.dtd">
<!-- Created with matplotlib (http://matplotlib.org/) -->
<svg height="432pt" version="1.1" viewBox="0 0 576 432" width="576pt" xmlns="http://www.w3.org/2000/svg" xmlns:xlink="http://www.w3.org/1999/xlink">
 <defs>
  <style type="text/css">
*{stroke-linecap:butt;stroke-linejoin:round;}
  </style>
 </defs>
 <g id="figure_1">
  <g id="patch_1">
   <path d="
M0 432
L576 432
L576 0
L0 0
z
" style="fill:#ffffff;"/>
  </g>
  <g id="axes_1">
   <g id="patch_2">
    <path d="
M72 388.8
L518.4 388.8
L518.4 43.2
L72 43.2
z
" style="fill:#ffffff;"/>
   </g>
   <g id="line2d_1">
    <path clip-path="url(#p7ff5b81e1d)" d="
M76.5091 331.2
L81.0182 331.2
L85.5273 331.2
L90.0364 331.2
L94.5455 331.2
L99.0545 331.2
L103.564 331.2
L108.073 331.198
L112.582 331.19
L117.091 331.16
L121.6 331.073
L126.109 330.872
L130.618 330.474
L135.127 329.777
L139.636 328.666
L144.145 327.029
L148.655 324.761
L153.164 321.776
L157.673 318.011
L162.182 313.432
L166.691 308.027
L171.2 301.812
L175.709 294.823
L180.218 287.117
L184.727 278.765
L189.236 269.847
L193.745 260.454
L198.255 250.679
L202.764 240.618
L207.273 230.365
L211.782 220.013
L216.291 209.651
L220.8 199.363
L225.309 189.228
L229.818 179.316
L234.327 169.695
L238.836 160.423
L243.345 151.553
L247.855 143.132
L252.364 135.201
L256.873 127.795
L261.382 120.942
L265.891 114.667
L270.4 108.991
L274.909 103.928
L279.418 99.4907
L283.927 95.6862
L288.436 92.5194
L292.945 89.9923
L297.455 88.104
L301.964 86.8514
L306.473 86.2295
L310.982 86.2312
L315.491 86.8483
L320 88.0707
L324.509 89.8875
L329.018 92.2868
L333.527 95.2557
L338.036 98.7808
L342.545 102.848
L347.055 107.443
L351.564 112.551
L356.073 118.156
L360.582 124.245
L365.091 130.8
L369.6 137.808
L374.109 145.252
L378.618 153.118
L383.127 161.391
L387.636 170.055
L392.145 179.096
L396.655 188.499
L401.164 198.25
L405.673 208.336
L410.182 218.742
L414.691 229.456
L419.2 240.463
L423.709 251.752
L428.218 263.31
L432.727 275.124
L437.236 287.183
L441.745 299.476
L446.255 311.991
L450.764 324.718
L455.273 337.646
L459.782 350.764
L464.291 364.064
L468.8 377.535
L473.309 391.169
L477.818 404.956
L482.327 418.888
L486.836 432.956
L486.85 433" style="fill:none;stroke:#0000ff;stroke-linecap:square;"/>
   </g>
   <g id="line2d_2">
    <path clip-path="url(#p7ff5b81e1d)" d="
M72 331.2
L76.5091 331.2
L81.0182 331.2
L85.5273 331.2
L90.0364 331.2
L94.5455 331.2
L99.0545 331.197
L103.564 331.188
L108.073 331.157
L112.582 331.081
L117.091 330.922
L121.6 330.631
L126.109 330.15
L130.618 329.419
L135.127 328.379
L139.636 326.979
L144.145 325.179
L148.655 322.947
L153.164 320.27
L157.673 317.143
L162.182 313.576
L166.691 309.586
L171.2 305.201
L175.709 300.455
L180.218 295.387
L184.727 290.041
L189.236 284.46
L193.745 278.69
L198.255 272.775
L202.764 266.76
L207.273 260.688
L211.782 254.597
L216.291 248.526
L220.8 242.51
L225.309 236.581
L229.818 230.767
L234.327 225.095
L238.836 219.589
L243.345 214.268
L247.855 209.151
L252.364 204.253
L256.873 199.588
L261.382 195.167
L265.891 190.999
L270.4 187.09
L274.909 183.447
L279.418 180.074
L283.927 176.973
L288.436 174.146
L292.945 171.593
L297.455 169.314
L301.964 167.307
L306.473 165.569
L310.982 164.098
L315.491 162.891
L320 161.942
L324.509 161.248
L329.018 160.803
L333.527 160.603
L338.036 160.642
L342.545 160.914
L347.055 161.414
L351.564 162.135
L356.073 163.071
L360.582 164.217
L365.091 165.566
L369.6 167.112
L374.109 168.848
L378.618 170.769
L383.127 172.869
L387.636 175.141
L392.145 177.58
L396.655 180.18
L401.164 182.935
L405.673 185.839
L410.182 188.886
L414.691 192.072
L419.2 195.391
L423.709 198.838
L428.218 202.407
L432.727 206.094
L437.236 209.894
L441.745 213.803
L446.255 217.815
L450.764 221.926
L455.273 226.132
L459.782 230.428
L464.291 234.811
L468.8 239.277
L473.309 243.821
L477.818 248.441
L482.327 253.132
L486.836 257.891
L491.345 262.714
L495.855 267.599
L500.364 272.542
L504.873 277.541
L509.382 282.591
L513.891 287.691
L518.4 292.837" style="fill:none;stroke:#008000;stroke-linecap:square;"/>
   </g>
   <g id="line2d_3">
    <path clip-path="url(#p7ff5b81e1d)" d="
M72 331.2
L76.5091 331.2
L81.0182 331.2
L85.5273 331.199
L90.0364 331.193
L94.5455 331.173
L99.0545 331.119
L103.564 331
L108.073 330.774
L112.582 330.389
L117.091 329.79
L121.6 328.923
L126.109 327.74
L130.618 326.202
L135.127 324.283
L139.636 321.969
L144.145 319.259
L148.655 316.162
L153.164 312.699
L157.673 308.899
L162.182 304.796
L166.691 300.433
L171.2 295.851
L175.709 291.097
L180.218 286.216
L184.727 281.254
L189.236 276.254
L193.745 271.259
L198.255 266.307
L202.764 261.437
L207.273 256.681
L211.782 252.071
L216.291 247.634
L220.8 243.394
L225.309 239.374
L229.818 235.593
L234.327 232.065
L238.836 228.805
L243.345 225.824
L247.855 223.131
L252.364 220.733
L256.873 218.635
L261.382 216.841
L265.891 215.351
L270.4 214.168
L274.909 213.289
L279.418 212.715
L283.927 212.441
L288.436 212.465
L292.945 212.782
L297.455 213.388
L301.964 214.277
L306.473 215.443
L310.982 216.88
L315.491 218.581
L320 220.541
L324.509 222.752
L329.018 225.206
L333.527 227.897
L338.036 230.817
L342.545 233.96
L347.055 237.317
L351.564 240.881
L356.073 244.646
L360.582 248.604
L365.091 252.747
L369.6 257.07
L374.109 261.564
L378.618 266.224
L383.127 271.043
L387.636 276.013
L392.145 281.13
L396.655 286.386
L401.164 291.775
L405.673 297.292
L410.182 302.931
L414.691 308.685
L419.2 314.551
L423.709 320.522
L428.218 326.594
L432.727 332.761
L437.236 339.018
L441.745 345.361
L446.255 351.786
L450.764 358.288
L455.273 364.862
L459.782 371.505
L464.291 378.213
L468.8 384.981
L473.309 391.807
L477.818 398.686
L482.327 405.616
L486.836 412.592
L491.345 419.612
L495.855 426.673
L499.874 433" style="fill:none;stroke:#ff0000;stroke-linecap:square;"/>
   </g>
   <g id="line2d_4">
    <path clip-path="url(#p7ff5b81e1d)" d="
M72 331.199
L76.5091 331.196
L81.0182 331.183
L85.5273 331.146
L90.0364 331.058
L94.5455 330.884
L99.0545 330.578
L103.564 330.089
L108.073 329.369
L112.582 328.371
L117.091 327.061
L121.6 325.414
L126.109 323.419
L130.618 321.076
L135.127 318.396
L139.636 315.403
L144.145 312.128
L148.655 308.606
L153.164 304.882
L157.673 300.999
L162.182 297.005
L166.691 292.945
L171.2 288.868
L175.709 284.816
L180.218 280.831
L184.727 276.955
L189.236 273.222
L193.745 269.666
L198.255 266.317
L202.764 263.201
L207.273 260.342
L211.782 257.759
L216.291 255.47
L220.8 253.489
L225.309 251.828
L229.818 250.495
L234.327 249.497
L238.836 248.84
L243.345 248.527
L247.855 248.558
L252.364 248.934
L256.873 249.652
L261.382 250.71
L265.891 252.105
L270.4 253.831
L274.909 255.883
L279.418 258.255
L283.927 260.94
L288.436 263.931
L292.945 267.221
L297.455 270.8
L301.964 274.662
L306.473 278.797
L310.982 283.198
L315.491 287.855
L320 292.76
L324.509 297.905
L329.018 303.28
L333.527 308.877
L338.036 314.687
L342.545 320.703
L347.055 326.916
L351.564 333.317
L356.073 339.9
L360.582 346.655
L365.091 353.575
L369.6 360.653
L374.109 367.882
L378.618 375.254
L383.127 382.762
L387.636 390.4
L392.145 398.161
L396.655 406.039
L401.164 414.027
L405.673 422.12
L410.182 430.312
L411.645 433" style="fill:none;stroke:#00bfbf;stroke-linecap:square;"/>
   </g>
   <g id="line2d_5">
    <path clip-path="url(#p7ff5b81e1d)" d="
M72 331.165
L76.5091 331.101
L81.0182 330.969
L85.5273 330.728
L90.0364 330.333
L94.5455 329.739
L99.0545 328.903
L103.564 327.794
L108.073 326.388
L112.582 324.678
L117.091 322.664
L121.6 320.362
L126.109 317.797
L130.618 315.001
L135.127 312.013
L139.636 308.879
L144.145 305.645
L148.655 302.358
L153.164 299.069
L157.673 295.823
L162.182 292.667
L166.691 289.642
L171.2 286.788
L175.709 284.142
L180.218 281.737
L184.727 279.6
L189.236 277.759
L193.745 276.234
L198.255 275.045
L202.764 274.207
L207.273 273.732
L211.782 273.63
L216.291 273.909
L220.8 274.573
L225.309 275.625
L229.818 277.065
L234.327 278.893
L238.836 281.107
L243.345 283.702
L247.855 286.674
L252.364 290.016
L256.873 293.723
L261.382 297.785
L265.891 302.196
L270.4 306.946
L274.909 312.026
L279.418 317.427
L283.927 323.139
L288.436 329.151
L292.945 335.455
L297.455 342.039
L301.964 348.894
L306.473 356.009
L310.982 363.375
L315.491 370.981
L320 378.817
L324.509 386.874
L329.018 395.142
L333.527 403.612
L338.036 412.274
L342.545 421.119
L347.055 430.139
L348.459 433" style="fill:none;stroke:#bf00bf;stroke-linecap:square;"/>
   </g>
   <g id="line2d_6">
    <path clip-path="url(#p7ff5b81e1d)" d="
M309.485 388.8
L309.485 385.734
L309.485 382.668
L309.485 379.601
L309.485 376.535
L309.485 373.469
L309.485 370.403
L309.485 367.337
L309.485 364.271
L309.485 361.204
L309.485 358.138
L309.485 355.072
L309.485 352.006
L309.485 348.94
L309.485 345.873
L309.485 342.807
L309.485 339.741
L309.485 336.675
L309.485 333.609
L309.485 330.543
L309.485 327.476
L309.485 324.41
L309.485 321.344
L309.485 318.278
L309.485 315.212
L309.485 312.145
L309.485 309.079
L309.485 306.013
L309.485 302.947
L309.485 299.881
L309.485 296.815
L309.485 293.748
L309.485 290.682
L309.485 287.616
L309.485 284.55
L309.485 281.484
L309.485 278.417
L309.485 275.351
L309.485 272.285
L309.485 269.219
L309.485 266.153
L309.485 263.087
L309.485 260.02
L309.485 256.954
L309.485 253.888
L309.485 250.822
L309.485 247.756
L309.485 244.689
L309.485 241.623
L309.485 238.557
L309.485 235.491
L309.485 232.425
L309.485 229.359
L309.485 226.292
L309.485 223.226
L309.485 220.16
L309.485 217.094
L309.485 214.028
L309.485 210.961
L309.485 207.895
L309.485 204.829
L309.485 201.763
L309.485 198.697
L309.485 195.631
L309.485 192.564
L309.485 189.498
L309.485 186.432
L309.485 183.366
L309.485 180.3
L309.485 177.233
L309.485 174.167
L309.485 171.101
L309.485 168.035
L309.485 164.969
L309.485 161.903
L309.485 158.836
L309.485 155.77
L309.485 152.704
L309.485 149.638
L309.485 146.572
L309.485 143.505
L309.485 140.439
L309.485 137.373
L309.485 134.307
L309.485 131.241
L309.485 128.175
L309.485 125.108
L309.485 122.042
L309.485 118.976
L309.485 115.91
L309.485 112.844
L309.485 109.777
L309.485 106.711
L309.485 103.645
L309.485 100.579
L309.485 97.5127
L309.485 94.4465
L309.485 91.3804
L309.485 88.3142
L309.485 85.248" style="fill:none;stroke:#000000;stroke-dasharray:6.000000,6.000000;stroke-dashoffset:0.0;"/>
   </g>
   <g id="line2d_7">
    <path clip-path="url(#p7ff5b81e1d)" d="
M72 85.248
L74.3988 85.2596
L76.7977 85.2713
L79.1965 85.2829
L81.5953 85.2945
L83.9942 85.3062
L86.393 85.3178
L88.7919 85.3295
L91.1907 85.3411
L93.5895 85.3527
L95.9884 85.3644
L98.3872 85.376
L100.786 85.3876
L103.185 85.3993
L105.584 85.4109
L107.983 85.4225
L110.381 85.4342
L112.78 85.4458
L115.179 85.4575
L117.578 85.4691
L119.977 85.4807
L122.376 85.4924
L124.774 85.504
L127.173 85.5156
L129.572 85.5273
L131.971 85.5389
L134.37 85.5505
L136.769 85.5622
L139.167 85.5738
L141.566 85.5855
L143.965 85.5971
L146.364 85.6087
L148.763 85.6204
L151.162 85.632
L153.56 85.6436
L155.959 85.6553
L158.358 85.6669
L160.757 85.6785
L163.156 85.6902
L165.555 85.7018
L167.953 85.7135
L170.352 85.7251
L172.751 85.7367
L175.15 85.7484
L177.549 85.76
L179.948 85.7716
L182.346 85.7833
L184.745 85.7949
L187.144 85.8065
L189.543 85.8182
L191.942 85.8298
L194.341 85.8415
L196.739 85.8531
L199.138 85.8647
L201.537 85.8764
L203.936 85.888
L206.335 85.8996
L208.734 85.9113
L211.133 85.9229
L213.531 85.9345
L215.93 85.9462
L218.329 85.9578
L220.728 85.9695
L223.127 85.9811
L225.526 85.9927
L227.924 86.0044
L230.323 86.016
L232.722 86.0276
L235.121 86.0393
L237.52 86.0509
L239.919 86.0625
L242.317 86.0742
L244.716 86.0858
L247.115 86.0975
L249.514 86.1091
L251.913 86.1207
L254.312 86.1324
L256.71 86.144
L259.109 86.1556
L261.508 86.1673
L263.907 86.1789
L266.306 86.1905
L268.705 86.2022
L271.103 86.2138
L273.502 86.2255
L275.901 86.2371
L278.3 86.2487
L280.699 86.2604
L283.098 86.272
L285.496 86.2836
L287.895 86.2953
L290.294 86.3069
L292.693 86.3185
L295.092 86.3302
L297.491 86.3418
L299.889 86.3535
L302.288 86.3651
L304.687 86.3767
L307.086 86.3884
L309.485 86.4" style="fill:none;stroke:#000000;stroke-dasharray:6.000000,6.000000;stroke-dashoffset:0.0;"/>
   </g>
   <g id="patch_3">
    <path d="
M72 43.2
L518.4 43.2" style="fill:none;stroke:#000000;stroke-linecap:square;stroke-linejoin:miter;"/>
   </g>
   <g id="patch_4">
    <path d="
M518.4 388.8
L518.4 43.2" style="fill:none;stroke:#000000;stroke-linecap:square;stroke-linejoin:miter;"/>
   </g>
   <g id="patch_5">
    <path d="
M72 388.8
L518.4 388.8" style="fill:none;stroke:#000000;stroke-linecap:square;stroke-linejoin:miter;"/>
   </g>
   <g id="patch_6">
    <path d="
M72 388.8
L72 43.2" style="fill:none;stroke:#000000;stroke-linecap:square;stroke-linejoin:miter;"/>
   </g>
   <g id="matplotlib.axis_1">
    <g id="xtick_1">
     <g id="line2d_8">
      <defs>
       <path d="
M0 0
L0 -4" id="m93b0483c22" style="stroke:#000000;stroke-width:0.5;"/>
      </defs>
      <g>
       <use style="stroke:#000000;stroke-width:0.5;" x="72.0" xlink:href="#m93b0483c22" y="388.8"/>
      </g>
     </g>
     <g id="line2d_9">
      <defs>
       <path d="
M0 0
L0 4" id="m741efc42ff" style="stroke:#000000;stroke-width:0.5;"/>
      </defs>
      <g>
       <use style="stroke:#000000;stroke-width:0.5;" x="72.0" xlink:href="#m741efc42ff" y="43.2"/>
      </g>
     </g>
     <g id="text_1">
      <!-- 0 -->
      <defs>
       <path d="
M31.7812 66.4062
Q24.1719 66.4062 20.3281 58.9062
Q16.5 51.4219 16.5 36.375
Q16.5 21.3906 20.3281 13.8906
Q24.1719 6.39062 31.7812 6.39062
Q39.4531 6.39062 43.2812 13.8906
Q47.125 21.3906 47.125 36.375
Q47.125 51.4219 43.2812 58.9062
Q39.4531 66.4062 31.7812 66.4062
M31.7812 74.2188
Q44.0469 74.2188 50.5156 64.5156
Q56.9844 54.8281 56.9844 36.375
Q56.9844 17.9688 50.5156 8.26562
Q44.0469 -1.42188 31.7812 -1.42188
Q19.5312 -1.42188 13.0625 8.26562
Q6.59375 17.9688 6.59375 36.375
Q6.59375 54.8281 13.0625 64.5156
Q19.5312 74.2188 31.7812 74.2188" id="BitstreamVeraSans-Roman-30"/>
      </defs>
      <g transform="translate(68.9765625 401.918125)scale(0.12 -0.12)">
       <use xlink:href="#BitstreamVeraSans-Roman-30"/>
      </g>
     </g>
    </g>
    <g id="xtick_2">
     <g id="line2d_10">
      <g>
       <use style="stroke:#000000;stroke-width:0.5;" x="131.52" xlink:href="#m93b0483c22" y="388.8"/>
      </g>
     </g>
     <g id="line2d_11">
      <g>
       <use style="stroke:#000000;stroke-width:0.5;" x="131.52" xlink:href="#m741efc42ff" y="43.2"/>
      </g>
     </g>
     <g id="text_2">
      <!-- 2 -->
      <defs>
       <path d="
M19.1875 8.29688
L53.6094 8.29688
L53.6094 0
L7.32812 0
L7.32812 8.29688
Q12.9375 14.1094 22.625 23.8906
Q32.3281 33.6875 34.8125 36.5312
Q39.5469 41.8438 41.4219 45.5312
Q43.3125 49.2188 43.3125 52.7812
Q43.3125 58.5938 39.2344 62.25
Q35.1562 65.9219 28.6094 65.9219
Q23.9688 65.9219 18.8125 64.3125
Q13.6719 62.7031 7.8125 59.4219
L7.8125 69.3906
Q13.7656 71.7812 18.9375 73
Q24.125 74.2188 28.4219 74.2188
Q39.75 74.2188 46.4844 68.5469
Q53.2188 62.8906 53.2188 53.4219
Q53.2188 48.9219 51.5312 44.8906
Q49.8594 40.875 45.4062 35.4062
Q44.1875 33.9844 37.6406 27.2188
Q31.1094 20.4531 19.1875 8.29688" id="BitstreamVeraSans-Roman-32"/>
      </defs>
      <g transform="translate(128.743125 401.918125)scale(0.12 -0.12)">
       <use xlink:href="#BitstreamVeraSans-Roman-32"/>
      </g>
     </g>
    </g>
    <g id="xtick_3">
     <g id="line2d_12">
      <g>
       <use style="stroke:#000000;stroke-width:0.5;" x="191.04" xlink:href="#m93b0483c22" y="388.8"/>
      </g>
     </g>
     <g id="line2d_13">
      <g>
       <use style="stroke:#000000;stroke-width:0.5;" x="191.04" xlink:href="#m741efc42ff" y="43.2"/>
      </g>
     </g>
     <g id="text_3">
      <!-- 4 -->
      <defs>
       <path d="
M37.7969 64.3125
L12.8906 25.3906
L37.7969 25.3906
z

M35.2031 72.9062
L47.6094 72.9062
L47.6094 25.3906
L58.0156 25.3906
L58.0156 17.1875
L47.6094 17.1875
L47.6094 0
L37.7969 0
L37.7969 17.1875
L4.89062 17.1875
L4.89062 26.7031
z
" id="BitstreamVeraSans-Roman-34"/>
      </defs>
      <g transform="translate(187.8525 401.918125)scale(0.12 -0.12)">
       <use xlink:href="#BitstreamVeraSans-Roman-34"/>
      </g>
     </g>
    </g>
    <g id="xtick_4">
     <g id="line2d_14">
      <g>
       <use style="stroke:#000000;stroke-width:0.5;" x="250.56" xlink:href="#m93b0483c22" y="388.8"/>
      </g>
     </g>
     <g id="line2d_15">
      <g>
       <use style="stroke:#000000;stroke-width:0.5;" x="250.56" xlink:href="#m741efc42ff" y="43.2"/>
      </g>
     </g>
     <g id="text_4">
      <!-- 6 -->
      <defs>
       <path d="
M33.0156 40.375
Q26.375 40.375 22.4844 35.8281
Q18.6094 31.2969 18.6094 23.3906
Q18.6094 15.5312 22.4844 10.9531
Q26.375 6.39062 33.0156 6.39062
Q39.6562 6.39062 43.5312 10.9531
Q47.4062 15.5312 47.4062 23.3906
Q47.4062 31.2969 43.5312 35.8281
Q39.6562 40.375 33.0156 40.375
M52.5938 71.2969
L52.5938 62.3125
Q48.875 64.0625 45.0938 64.9844
Q41.3125 65.9219 37.5938 65.9219
Q27.8281 65.9219 22.6719 59.3281
Q17.5312 52.7344 16.7969 39.4062
Q19.6719 43.6562 24.0156 45.9219
Q28.375 48.1875 33.5938 48.1875
Q44.5781 48.1875 50.9531 41.5156
Q57.3281 34.8594 57.3281 23.3906
Q57.3281 12.1562 50.6875 5.35938
Q44.0469 -1.42188 33.0156 -1.42188
Q20.3594 -1.42188 13.6719 8.26562
Q6.98438 17.9688 6.98438 36.375
Q6.98438 53.6562 15.1875 63.9375
Q23.3906 74.2188 37.2031 74.2188
Q40.9219 74.2188 44.7031 73.4844
Q48.4844 72.75 52.5938 71.2969" id="BitstreamVeraSans-Roman-36"/>
      </defs>
      <g transform="translate(247.539375 401.918125)scale(0.12 -0.12)">
       <use xlink:href="#BitstreamVeraSans-Roman-36"/>
      </g>
     </g>
    </g>
    <g id="xtick_5">
     <g id="line2d_16">
      <g>
       <use style="stroke:#000000;stroke-width:0.5;" x="310.08" xlink:href="#m93b0483c22" y="388.8"/>
      </g>
     </g>
     <g id="line2d_17">
      <g>
       <use style="stroke:#000000;stroke-width:0.5;" x="310.08" xlink:href="#m741efc42ff" y="43.2"/>
      </g>
     </g>
     <g id="text_5">
      <!-- 8 -->
      <defs>
       <path d="
M31.7812 34.625
Q24.75 34.625 20.7188 30.8594
Q16.7031 27.0938 16.7031 20.5156
Q16.7031 13.9219 20.7188 10.1562
Q24.75 6.39062 31.7812 6.39062
Q38.8125 6.39062 42.8594 10.1719
Q46.9219 13.9688 46.9219 20.5156
Q46.9219 27.0938 42.8906 30.8594
Q38.875 34.625 31.7812 34.625
M21.9219 38.8125
Q15.5781 40.375 12.0312 44.7188
Q8.5 49.0781 8.5 55.3281
Q8.5 64.0625 14.7188 69.1406
Q20.9531 74.2188 31.7812 74.2188
Q42.6719 74.2188 48.875 69.1406
Q55.0781 64.0625 55.0781 55.3281
Q55.0781 49.0781 51.5312 44.7188
Q48 40.375 41.7031 38.8125
Q48.8281 37.1562 52.7969 32.3125
Q56.7812 27.4844 56.7812 20.5156
Q56.7812 9.90625 50.3125 4.23438
Q43.8438 -1.42188 31.7812 -1.42188
Q19.7344 -1.42188 13.25 4.23438
Q6.78125 9.90625 6.78125 20.5156
Q6.78125 27.4844 10.7812 32.3125
Q14.7969 37.1562 21.9219 38.8125
M18.3125 54.3906
Q18.3125 48.7344 21.8438 45.5625
Q25.3906 42.3906 31.7812 42.3906
Q38.1406 42.3906 41.7188 45.5625
Q45.3125 48.7344 45.3125 54.3906
Q45.3125 60.0625 41.7188 63.2344
Q38.1406 66.4062 31.7812 66.4062
Q25.3906 66.4062 21.8438 63.2344
Q18.3125 60.0625 18.3125 54.3906" id="BitstreamVeraSans-Roman-38"/>
      </defs>
      <g transform="translate(307.08 401.918125)scale(0.12 -0.12)">
       <use xlink:href="#BitstreamVeraSans-Roman-38"/>
      </g>
     </g>
    </g>
    <g id="xtick_6">
     <g id="line2d_18">
      <g>
       <use style="stroke:#000000;stroke-width:0.5;" x="369.6" xlink:href="#m93b0483c22" y="388.8"/>
      </g>
     </g>
     <g id="line2d_19">
      <g>
       <use style="stroke:#000000;stroke-width:0.5;" x="369.6" xlink:href="#m741efc42ff" y="43.2"/>
      </g>
     </g>
     <g id="text_6">
      <!-- 10 -->
      <defs>
       <path d="
M12.4062 8.29688
L28.5156 8.29688
L28.5156 63.9219
L10.9844 60.4062
L10.9844 69.3906
L28.4219 72.9062
L38.2812 72.9062
L38.2812 8.29688
L54.3906 8.29688
L54.3906 0
L12.4062 0
z
" id="BitstreamVeraSans-Roman-31"/>
      </defs>
      <g transform="translate(363.0225 401.918125)scale(0.12 -0.12)">
       <use xlink:href="#BitstreamVeraSans-Roman-31"/>
       <use x="63.623046875" xlink:href="#BitstreamVeraSans-Roman-30"/>
      </g>
     </g>
    </g>
    <g id="xtick_7">
     <g id="line2d_20">
      <g>
       <use style="stroke:#000000;stroke-width:0.5;" x="429.12" xlink:href="#m93b0483c22" y="388.8"/>
      </g>
     </g>
     <g id="line2d_21">
      <g>
       <use style="stroke:#000000;stroke-width:0.5;" x="429.12" xlink:href="#m741efc42ff" y="43.2"/>
      </g>
     </g>
     <g id="text_7">
      <!-- 12 -->
      <g transform="translate(422.745 401.918125)scale(0.12 -0.12)">
       <use xlink:href="#BitstreamVeraSans-Roman-31"/>
       <use x="63.623046875" xlink:href="#BitstreamVeraSans-Roman-32"/>
      </g>
     </g>
    </g>
    <g id="xtick_8">
     <g id="line2d_22">
      <g>
       <use style="stroke:#000000;stroke-width:0.5;" x="488.64" xlink:href="#m93b0483c22" y="388.8"/>
      </g>
     </g>
     <g id="line2d_23">
      <g>
       <use style="stroke:#000000;stroke-width:0.5;" x="488.64" xlink:href="#m741efc42ff" y="43.2"/>
      </g>
     </g>
     <g id="text_8">
      <!-- 14 -->
      <g transform="translate(482.000625 401.918125)scale(0.12 -0.12)">
       <use xlink:href="#BitstreamVeraSans-Roman-31"/>
       <use x="63.623046875" xlink:href="#BitstreamVeraSans-Roman-34"/>
      </g>
     </g>
    </g>
    <g id="text_9">
     <!-- $\lambda$ -->
     <defs>
      <path d="
M5.07812 1.70312
Q5.07812 3.17188 6.39062 4.5
L34.5156 32.0781
L24.6094 59.9062
Q23.4375 63.0938 22.1406 64.9375
Q20.8438 66.7969 18.4062 66.7969
Q17.2812 66.7969 17.2812 68.1094
Q17.3906 68.7031 17.7812 69.0469
Q18.1719 69.3906 18.7969 69.3906
Q29.2969 69.3906 31.5 63.1875
L51.8125 6.5
Q53.125 2.25 54.5 0.78125
Q54.9844 0.046875 54.9844 -0.203125
Q54.9844 -1.125 54.2031 -1.125
L48.7812 -1.125
Q46.2969 -0.390625 44.8281 3.21875
L35.6875 28.8125
L11.5312 0.390625
Q9.71875 -1.3125 8.29688 -1.3125
Q7.03125 -1.3125 6.04688 -0.4375
Q5.07812 0.4375 5.07812 1.70312" id="Cmmi10-b8"/>
     </defs>
     <g transform="translate(291.66 418.531875)scale(0.12 -0.12)">
      <use transform="translate(0.0 0.609375)" xlink:href="#Cmmi10-b8"/>
     </g>
    </g>
   </g>
   <g id="matplotlib.axis_2">
    <g id="ytick_1">
     <g id="line2d_24">
      <defs>
       <path d="
M0 0
L4 0" id="m728421d6d4" style="stroke:#000000;stroke-width:0.5;"/>
      </defs>
      <g>
       <use style="stroke:#000000;stroke-width:0.5;" x="72.0" xlink:href="#m728421d6d4" y="388.8"/>
      </g>
     </g>
     <g id="line2d_25">
      <defs>
       <path d="
M0 0
L-4 0" id="mcb0005524f" style="stroke:#000000;stroke-width:0.5;"/>
      </defs>
      <g>
       <use style="stroke:#000000;stroke-width:0.5;" x="518.4" xlink:href="#mcb0005524f" y="388.8"/>
      </g>
     </g>
     <g id="text_10">
      <!-- −0.1 -->
      <defs>
       <path d="
M10.5938 35.5
L73.1875 35.5
L73.1875 27.2031
L10.5938 27.2031
z
" id="BitstreamVeraSans-Roman-2212"/>
       <path d="
M10.6875 12.4062
L21 12.4062
L21 0
L10.6875 0
z
" id="BitstreamVeraSans-Roman-2e"/>
      </defs>
      <g transform="translate(41.24 392.11125)scale(0.12 -0.12)">
       <use xlink:href="#BitstreamVeraSans-Roman-2212"/>
       <use x="83.7890625" xlink:href="#BitstreamVeraSans-Roman-30"/>
       <use x="147.412109375" xlink:href="#BitstreamVeraSans-Roman-2e"/>
       <use x="179.19921875" xlink:href="#BitstreamVeraSans-Roman-31"/>
      </g>
     </g>
    </g>
    <g id="ytick_2">
     <g id="line2d_26">
      <g>
       <use style="stroke:#000000;stroke-width:0.5;" x="72.0" xlink:href="#m728421d6d4" y="331.2"/>
      </g>
     </g>
     <g id="line2d_27">
      <g>
       <use style="stroke:#000000;stroke-width:0.5;" x="518.4" xlink:href="#mcb0005524f" y="331.2"/>
      </g>
     </g>
     <g id="text_11">
      <!-- 0.0 -->
      <g transform="translate(50.504375 334.51125)scale(0.12 -0.12)">
       <use xlink:href="#BitstreamVeraSans-Roman-30"/>
       <use x="63.623046875" xlink:href="#BitstreamVeraSans-Roman-2e"/>
       <use x="95.41015625" xlink:href="#BitstreamVeraSans-Roman-30"/>
      </g>
     </g>
    </g>
    <g id="ytick_3">
     <g id="line2d_28">
      <g>
       <use style="stroke:#000000;stroke-width:0.5;" x="72.0" xlink:href="#m728421d6d4" y="273.6"/>
      </g>
     </g>
     <g id="line2d_29">
      <g>
       <use style="stroke:#000000;stroke-width:0.5;" x="518.4" xlink:href="#mcb0005524f" y="273.6"/>
      </g>
     </g>
     <g id="text_12">
      <!-- 0.1 -->
      <g transform="translate(50.815625 276.91125)scale(0.12 -0.12)">
       <use xlink:href="#BitstreamVeraSans-Roman-30"/>
       <use x="63.623046875" xlink:href="#BitstreamVeraSans-Roman-2e"/>
       <use x="95.41015625" xlink:href="#BitstreamVeraSans-Roman-31"/>
      </g>
     </g>
    </g>
    <g id="ytick_4">
     <g id="line2d_30">
      <g>
       <use style="stroke:#000000;stroke-width:0.5;" x="72.0" xlink:href="#m728421d6d4" y="216.0"/>
      </g>
     </g>
     <g id="line2d_31">
      <g>
       <use style="stroke:#000000;stroke-width:0.5;" x="518.4" xlink:href="#mcb0005524f" y="216.0"/>
      </g>
     </g>
     <g id="text_13">
      <!-- 0.2 -->
      <g transform="translate(50.909375 219.31125)scale(0.12 -0.12)">
       <use xlink:href="#BitstreamVeraSans-Roman-30"/>
       <use x="63.623046875" xlink:href="#BitstreamVeraSans-Roman-2e"/>
       <use x="95.41015625" xlink:href="#BitstreamVeraSans-Roman-32"/>
      </g>
     </g>
    </g>
    <g id="ytick_5">
     <g id="line2d_32">
      <g>
       <use style="stroke:#000000;stroke-width:0.5;" x="72.0" xlink:href="#m728421d6d4" y="158.4"/>
      </g>
     </g>
     <g id="line2d_33">
      <g>
       <use style="stroke:#000000;stroke-width:0.5;" x="518.4" xlink:href="#mcb0005524f" y="158.4"/>
      </g>
     </g>
     <g id="text_14">
      <!-- 0.3 -->
      <defs>
       <path d="
M40.5781 39.3125
Q47.6562 37.7969 51.625 33
Q55.6094 28.2188 55.6094 21.1875
Q55.6094 10.4062 48.1875 4.48438
Q40.7656 -1.42188 27.0938 -1.42188
Q22.5156 -1.42188 17.6562 -0.515625
Q12.7969 0.390625 7.625 2.20312
L7.625 11.7188
Q11.7188 9.32812 16.5938 8.10938
Q21.4844 6.89062 26.8125 6.89062
Q36.0781 6.89062 40.9375 10.5469
Q45.7969 14.2031 45.7969 21.1875
Q45.7969 27.6406 41.2812 31.2656
Q36.7656 34.9062 28.7188 34.9062
L20.2188 34.9062
L20.2188 43.0156
L29.1094 43.0156
Q36.375 43.0156 40.2344 45.9219
Q44.0938 48.8281 44.0938 54.2969
Q44.0938 59.9062 40.1094 62.9062
Q36.1406 65.9219 28.7188 65.9219
Q24.6562 65.9219 20.0156 65.0312
Q15.375 64.1562 9.8125 62.3125
L9.8125 71.0938
Q15.4375 72.6562 20.3438 73.4375
Q25.25 74.2188 29.5938 74.2188
Q40.8281 74.2188 47.3594 69.1094
Q53.9062 64.0156 53.9062 55.3281
Q53.9062 49.2656 50.4375 45.0938
Q46.9688 40.9219 40.5781 39.3125" id="BitstreamVeraSans-Roman-33"/>
      </defs>
      <g transform="translate(50.669375 161.71125)scale(0.12 -0.12)">
       <use xlink:href="#BitstreamVeraSans-Roman-30"/>
       <use x="63.623046875" xlink:href="#BitstreamVeraSans-Roman-2e"/>
       <use x="95.41015625" xlink:href="#BitstreamVeraSans-Roman-33"/>
      </g>
     </g>
    </g>
    <g id="ytick_6">
     <g id="line2d_34">
      <g>
       <use style="stroke:#000000;stroke-width:0.5;" x="72.0" xlink:href="#m728421d6d4" y="100.8"/>
      </g>
     </g>
     <g id="line2d_35">
      <g>
       <use style="stroke:#000000;stroke-width:0.5;" x="518.4" xlink:href="#mcb0005524f" y="100.8"/>
      </g>
     </g>
     <g id="text_15">
      <!-- 0.4 -->
      <g transform="translate(50.380625 104.11125)scale(0.12 -0.12)">
       <use xlink:href="#BitstreamVeraSans-Roman-30"/>
       <use x="63.623046875" xlink:href="#BitstreamVeraSans-Roman-2e"/>
       <use x="95.41015625" xlink:href="#BitstreamVeraSans-Roman-34"/>
      </g>
     </g>
    </g>
    <g id="ytick_7">
     <g id="text_16">
      <!-- 0.5 -->
      <defs>
       <path d="
M10.7969 72.9062
L49.5156 72.9062
L49.5156 64.5938
L19.8281 64.5938
L19.8281 46.7344
Q21.9688 47.4688 24.1094 47.8281
Q26.2656 48.1875 28.4219 48.1875
Q40.625 48.1875 47.75 41.5
Q54.8906 34.8125 54.8906 23.3906
Q54.8906 11.625 47.5625 5.09375
Q40.2344 -1.42188 26.9062 -1.42188
Q22.3125 -1.42188 17.5469 -0.640625
Q12.7969 0.140625 7.71875 1.70312
L7.71875 11.625
Q12.1094 9.23438 16.7969 8.0625
Q21.4844 6.89062 26.7031 6.89062
Q35.1562 6.89062 40.0781 11.3281
Q45.0156 15.7656 45.0156 23.3906
Q45.0156 31 40.0781 35.4375
Q35.1562 39.8906 26.7031 39.8906
Q22.75 39.8906 18.8125 39.0156
Q14.8906 38.1406 10.7969 36.2812
z
" id="BitstreamVeraSans-Roman-35"/>
      </defs>
      <g transform="translate(50.755625 46.51125)scale(0.12 -0.12)">
       <use xlink:href="#BitstreamVeraSans-Roman-30"/>
       <use x="63.623046875" xlink:href="#BitstreamVeraSans-Roman-2e"/>
       <use x="95.41015625" xlink:href="#BitstreamVeraSans-Roman-35"/>
      </g>
     </g>
    </g>
    <g id="text_17">
     <!-- $Cp$ -->
     <defs>
      <path d="
M-2.48438 -19.3906
Q-3.42188 -19.3906 -3.42188 -18.1094
Q-3.07812 -15.9219 -2.09375 -15.9219
Q1.03125 -15.9219 2.26562 -15.3594
Q3.51562 -14.7969 4.20312 -12.5
L15.4844 32.5156
Q16.2188 34.375 16.2188 37.3125
Q16.2188 41.6094 13.2812 41.6094
Q10.1562 41.6094 8.64062 37.8594
Q7.125 34.125 5.71875 28.4219
Q5.71875 27.7812 4.89062 27.7812
L3.71875 27.7812
Q3.46875 27.7812 3.17188 28.1406
Q2.875 28.5156 2.875 28.8125
Q3.95312 33.1562 4.95312 36.1719
Q5.95312 39.2031 8.07812 41.6875
Q10.2031 44.1875 13.375 44.1875
Q16.7969 44.1875 19.375 42.25
Q21.9688 40.3281 22.7031 37.0156
Q25.4375 40.1875 28.75 42.1875
Q32.0781 44.1875 35.5938 44.1875
Q39.7969 44.1875 42.8906 41.9375
Q46 39.7031 47.5625 36.0625
Q49.125 32.4219 49.125 28.2188
Q49.125 21.7812 45.8281 14.8906
Q42.5312 8.01562 36.8906 3.4375
Q31.25 -1.125 24.8125 -1.125
Q21.875 -1.125 19.5 0.53125
Q17.1406 2.20312 15.8281 4.89062
L11.2812 -12.8906
Q11.0312 -14.3594 10.9844 -14.5938
Q10.9844 -15.9219 17.5781 -15.9219
Q18.6094 -15.9219 18.6094 -17.1875
Q18.2656 -18.5 18.0469 -18.9375
Q17.8281 -19.3906 16.8906 -19.3906
z

M24.9062 1.51562
Q28.375 1.51562 31.3438 4.375
Q34.3281 7.23438 36.1875 10.7969
Q37.5469 13.4844 38.7344 17.3594
Q39.9375 21.2344 40.8125 25.625
Q41.7031 30.0312 41.7031 32.625
Q41.7031 34.9062 41.0938 36.9062
Q40.4844 38.9219 39.0938 40.2656
Q37.7031 41.6094 35.4062 41.6094
Q31.7344 41.6094 28.4844 38.9844
Q25.25 36.375 22.6094 32.5156
L22.6094 32.1719
L17.0938 10.1094
Q17.7812 6.54688 19.7344 4.03125
Q21.6875 1.51562 24.9062 1.51562" id="Cmmi10-70"/>
      <path d="
M14.5938 21.5781
Q14.5938 15.5781 16.9062 11.0156
Q19.2344 6.45312 23.6562 3.875
Q28.0781 1.3125 34.0781 1.3125
Q40.375 1.3125 46.2031 4.53125
Q52.0469 7.76562 56.1719 13.1562
Q60.2969 18.5625 61.8125 24.6094
Q62.0156 25.2031 62.5938 25.2031
L63.8125 25.2031
Q64.2031 25.2031 64.4531 24.9219
Q64.7031 24.6562 64.7031 24.3125
Q64.7031 24.2188 64.5938 24.0312
Q62.8906 17.0938 57.9844 11.0156
Q53.0781 4.9375 46.2344 1.35938
Q39.4062 -2.20312 32.1719 -2.20312
Q24.3594 -2.20312 18.1562 1.3125
Q11.9688 4.82812 8.51562 11.0781
Q5.07812 17.3281 5.07812 25.2031
Q5.07812 33.5938 8.82812 41.8125
Q12.5938 50.0469 18.9375 56.4688
Q25.2969 62.8906 33.4219 66.7031
Q41.5469 70.5156 49.9062 70.5156
Q53.2188 70.5156 56.25 69.5
Q59.2812 68.5 61.8594 66.4531
Q64.4531 64.4062 66.1094 61.7188
L74.0312 70.3125
Q74.0312 70.5156 74.5156 70.5156
L75.0938 70.5156
Q75.4844 70.5156 75.7344 70.1719
Q75.9844 69.8281 75.9844 69.4844
L69.1875 42.4844
Q69.1875 41.7969 68.4062 41.7969
L66.6094 41.7969
Q65.8281 41.7969 65.8281 42.9219
Q66.2188 45.125 66.2188 48.1875
Q66.2188 53.0781 64.5469 57.3906
Q62.8906 61.7188 59.3906 64.3594
Q55.9062 67 50.875 67
Q42.7188 67 35.9375 62.8906
Q29.1562 58.7969 24.4375 52.125
Q19.7344 45.4531 17.1562 37.3281
Q14.5938 29.2031 14.5938 21.5781" id="Cmmi10-43"/>
     </defs>
     <g transform="translate(33.744375 223.32)rotate(-90.0)scale(0.12 -0.12)">
      <use transform="translate(0.0 0.484375)" xlink:href="#Cmmi10-43"/>
      <use transform="translate(71.38671875 0.484375)" xlink:href="#Cmmi10-70"/>
     </g>
    </g>
   </g>
   <g id="text_18">
    <!-- $\beta=0^{\circ}$ -->
    <defs>
     <path d="
M2.6875 -19.3906
Q2.39062 -19.3906 2.14062 -19.0469
Q1.90625 -18.7031 1.90625 -18.4062
L17.2812 43.4062
Q18.6094 48.3906 21.1406 53.0781
Q23.6875 57.7656 27.5156 61.7969
Q31.3438 65.8281 35.9375 68.1719
Q40.5312 70.5156 45.7031 70.5156
Q49.4219 70.5156 52.4219 68.875
Q55.4219 67.2344 57.1562 64.2812
Q58.8906 61.3281 58.8906 57.625
Q58.8906 54.0469 57.5156 50.7969
Q56.1562 47.5625 53.7031 44.75
Q51.2656 41.9375 48.4844 40.1875
Q50.0938 39.1562 51.3594 37.5625
Q52.6406 35.9844 53.4219 34.25
Q54.2031 32.5156 54.6406 30.3906
Q55.0781 28.2656 55.0781 26.4219
Q55.0781 21.2969 52.875 16.3125
Q50.6875 11.3281 46.8906 7.26562
Q43.1094 3.21875 38.2188 0.84375
Q33.3438 -1.51562 28.2188 -1.51562
Q22.6094 -1.51562 18.1094 1.5625
Q13.625 4.64062 11.9219 9.90625
L4.6875 -18.7969
Q4.6875 -19.3906 3.90625 -19.3906
z

M28.4219 1.21875
Q32.9062 1.21875 36.5469 4.17188
Q40.1875 7.125 42.5469 11.5938
Q44.9219 16.0625 46.1562 21.0625
Q47.4062 26.0781 47.4062 30.1719
Q47.4062 35.25 44.4844 38.1875
Q41.0625 36.9219 37.7969 36.9219
Q29.8906 36.9219 29.8906 39.5938
Q29.8906 43.1094 38.9219 43.1094
Q42.1406 43.1094 44.8281 42.0938
Q46.9688 43.75 48.7188 46.9688
Q50.4844 50.2031 51.3906 53.7188
Q52.2969 57.2344 52.2969 60.2969
Q52.2969 63.5781 50.5625 65.75
Q48.8281 67.9219 45.5156 67.9219
Q39.4062 67.9219 34.1562 64.1562
Q28.9062 60.4062 25.2969 54.6562
Q21.6875 48.9219 20.125 42.8281
L14.5938 20.7031
Q14.0625 18.4062 13.9219 15.5781
Q13.9219 9.32812 18.0156 5.26562
Q22.125 1.21875 28.4219 1.21875
M32.9062 39.8906
Q34.4219 39.5 37.8906 39.5
Q39.5938 39.5 41.3125 40.0938
Q41.2188 40.1875 40.9219 40.1875
Q39.8438 40.4844 38.625 40.4844
Q34.0781 40.4844 32.9062 39.8906" id="Cmmi10-af"/>
     <path d="
M25 -2.20312
Q12.75 -2.20312 8.32812 7.875
Q3.90625 17.9688 3.90625 31.8906
Q3.90625 40.5781 5.48438 48.2344
Q7.07812 55.9062 11.7812 61.25
Q16.5 66.6094 25 66.6094
Q31.5938 66.6094 35.7812 63.375
Q39.9844 60.1562 42.1875 55.0469
Q44.3906 49.9531 45.1875 44.1094
Q46 38.2812 46 31.8906
Q46 23.2969 44.4062 15.7969
Q42.8281 8.29688 38.1875 3.04688
Q33.5469 -2.20312 25 -2.20312
M25 0.390625
Q30.5625 0.390625 33.2969 6.09375
Q36.0312 11.8125 36.6719 18.75
Q37.3125 25.6875 37.3125 33.5
Q37.3125 41.0156 36.6719 47.3594
Q36.0312 53.7188 33.3125 58.8594
Q30.6094 64.0156 25 64.0156
Q19.3438 64.0156 16.6094 58.8281
Q13.875 53.6562 13.2344 47.3281
Q12.5938 41.0156 12.5938 33.5
Q12.5938 27.9375 12.8594 23
Q13.1406 18.0625 14.3125 12.8125
Q15.4844 7.5625 18.0938 3.96875
Q20.7031 0.390625 25 0.390625" id="Cmr10-30"/>
     <path d="
M25 5.60938
Q19.8281 5.60938 15.3594 8.21875
Q10.8906 10.8438 8.25 15.375
Q5.60938 19.9219 5.60938 25
Q5.60938 30.0781 8.25 34.6094
Q10.8906 39.1562 15.3594 41.7656
Q19.8281 44.3906 25 44.3906
Q30.1719 44.3906 34.6094 41.75
Q39.0625 39.1094 41.6719 34.5938
Q44.2812 30.0781 44.2812 25
Q44.2812 19.9219 41.6719 15.4062
Q39.0625 10.8906 34.6094 8.25
Q30.1719 5.60938 25 5.60938
M25 9.625
Q31.25 9.625 35.7656 14.1875
Q40.2812 18.75 40.2812 25
Q40.2812 29 38.2031 32.5938
Q36.1406 36.1875 32.625 38.2812
Q29.1094 40.375 25 40.375
Q21.9219 40.375 19.1406 39.1719
Q16.3594 37.9844 14.1562 35.7812
Q11.9688 33.5938 10.7969 30.8281
Q9.625 28.0781 9.625 25
Q9.625 18.75 14.1406 14.1875
Q18.6562 9.625 25 9.625" id="Cmsy10-b1"/>
     <path d="
M7.51562 13.2812
Q6.6875 13.2812 6.14062 13.9062
Q5.60938 14.5469 5.60938 15.2812
Q5.60938 16.1094 6.14062 16.6875
Q6.6875 17.2812 7.51562 17.2812
L70.3125 17.2812
Q71.0469 17.2812 71.5781 16.6875
Q72.125 16.1094 72.125 15.2812
Q72.125 14.5469 71.5781 13.9062
Q71.0469 13.2812 70.3125 13.2812
z

M7.51562 32.7188
Q6.6875 32.7188 6.14062 33.2969
Q5.60938 33.8906 5.60938 34.7188
Q5.60938 35.4531 6.14062 36.0781
Q6.6875 36.7188 7.51562 36.7188
L70.3125 36.7188
Q71.0469 36.7188 71.5781 36.0781
Q72.125 35.4531 72.125 34.7188
Q72.125 33.8906 71.5781 33.2969
Q71.0469 32.7188 70.3125 32.7188
z
" id="Cmr10-3d"/>
    </defs>
    <g transform="translate(369.6 100.8)scale(0.12 -0.12)">
     <use transform="translate(0.0 0.4109375)" xlink:href="#Cmmi10-af"/>
     <use transform="translate(74.052734375 0.4109375)" xlink:href="#Cmr10-3d"/>
     <use transform="translate(158.111328125 0.4109375)" xlink:href="#Cmr10-30"/>
     <use transform="translate(220.40234375 42.9265625)scale(0.7)" xlink:href="#Cmsy10-b1"/>
    </g>
   </g>
   <g id="text_19">
    <!-- $\beta=5^{\circ}$ -->
    <defs>
     <path d="
M8.6875 11.375
Q9.71875 8.45312 11.8438 6.04688
Q13.9688 3.65625 16.875 2.3125
Q19.7812 0.984375 22.9062 0.984375
Q30.125 0.984375 32.8594 6.59375
Q35.5938 12.2031 35.5938 20.2188
Q35.5938 23.6875 35.4688 26.0469
Q35.3594 28.4219 34.8125 30.6094
Q33.8906 34.125 31.5625 36.7656
Q29.25 39.4062 25.875 39.4062
Q22.5156 39.4062 20.0938 38.375
Q17.6719 37.3594 16.1562 35.9844
Q14.6562 34.625 13.4844 33.1094
Q12.3125 31.5938 12.0156 31.5
L10.8906 31.5
Q10.6406 31.5 10.2656 31.8125
Q9.90625 32.125 9.90625 32.4219
L9.90625 65.8281
Q9.90625 66.0625 10.2188 66.3281
Q10.5469 66.6094 10.8906 66.6094
L11.1875 66.6094
Q17.9219 63.375 25.4844 63.375
Q32.9062 63.375 39.7969 66.6094
L40.0938 66.6094
Q40.4375 66.6094 40.7188 66.3594
Q41.0156 66.1094 41.0156 65.8281
L41.0156 64.8906
Q41.0156 64.4062 40.8281 64.4062
Q37.4062 59.8594 32.25 57.3125
Q27.0938 54.7812 21.5781 54.7812
Q17.5781 54.7812 13.375 55.9062
L13.375 37.0156
Q16.7031 39.7031 19.3125 40.8438
Q21.9219 42 25.9844 42
Q31.5 42 35.8594 38.8125
Q40.2344 35.6406 42.5781 30.5312
Q44.9219 25.4375 44.9219 20.125
Q44.9219 14.1094 41.9688 8.98438
Q39.0156 3.85938 33.9375 0.828125
Q28.8594 -2.20312 22.9062 -2.20312
Q17.9688 -2.20312 13.8438 0.328125
Q9.71875 2.875 7.34375 7.17188
Q4.98438 11.4688 4.98438 16.3125
Q4.98438 18.5625 6.4375 19.9688
Q7.90625 21.3906 10.1094 21.3906
Q12.3125 21.3906 13.7969 19.9375
Q15.2812 18.5 15.2812 16.3125
Q15.2812 14.1562 13.7969 12.6719
Q12.3125 11.1875 10.1094 11.1875
Q9.76562 11.1875 9.32812 11.25
Q8.89062 11.3281 8.6875 11.375" id="Cmr10-35"/>
    </defs>
    <g transform="translate(458.88 216.0)scale(0.12 -0.12)">
     <use transform="translate(0.0 0.4109375)" xlink:href="#Cmmi10-af"/>
     <use transform="translate(74.052734375 0.4109375)" xlink:href="#Cmr10-3d"/>
     <use transform="translate(158.111328125 0.4109375)" xlink:href="#Cmr10-35"/>
     <use transform="translate(220.40234375 42.9265625)scale(0.7)" xlink:href="#Cmsy10-b1"/>
    </g>
   </g>
   <g id="text_20">
    <!-- $\beta=10^{\circ}$ -->
    <defs>
     <path d="
M9.28125 0
L9.28125 3.51562
Q21.7812 3.51562 21.7812 6.6875
L21.7812 59.1875
Q16.6094 56.6875 8.6875 56.6875
L8.6875 60.2031
Q20.9531 60.2031 27.2031 66.6094
L28.6094 66.6094
Q28.9531 66.6094 29.2656 66.3281
Q29.5938 66.0625 29.5938 65.7188
L29.5938 6.6875
Q29.5938 3.51562 42.0938 3.51562
L42.0938 0
z
" id="Cmr10-31"/>
    </defs>
    <g transform="translate(354.72 233.28)scale(0.12 -0.12)">
     <use transform="translate(0.0 0.4109375)" xlink:href="#Cmmi10-af"/>
     <use transform="translate(74.052734375 0.4109375)" xlink:href="#Cmr10-3d"/>
     <use transform="translate(158.111328125 0.4109375)" xlink:href="#Cmr10-31"/>
     <use transform="translate(208.111328125 0.4109375)" xlink:href="#Cmr10-30"/>
     <use transform="translate(270.40234375 42.9265625)scale(0.7)" xlink:href="#Cmsy10-b1"/>
    </g>
   </g>
   <g id="text_21">
    <!-- $\beta=15^{\circ}$ -->
    <g transform="translate(369.6 336.96)scale(0.12 -0.12)">
     <use transform="translate(0.0 0.4109375)" xlink:href="#Cmmi10-af"/>
     <use transform="translate(74.052734375 0.4109375)" xlink:href="#Cmr10-3d"/>
     <use transform="translate(158.111328125 0.4109375)" xlink:href="#Cmr10-31"/>
     <use transform="translate(208.111328125 0.4109375)" xlink:href="#Cmr10-35"/>
     <use transform="translate(270.40234375 42.9265625)scale(0.7)" xlink:href="#Cmsy10-b1"/>
    </g>
   </g>
   <g id="text_22">
    <!-- $\beta=20^{\circ}$ -->
    <defs>
     <path d="
M4.98438 0
L4.98438 2.6875
Q4.98438 2.9375 5.17188 3.21875
L20.7031 20.4062
Q24.2188 24.2188 26.4062 26.7969
Q28.6094 29.3906 30.75 32.7656
Q32.9062 36.1406 34.1562 39.625
Q35.4062 43.1094 35.4062 47.0156
Q35.4062 51.125 33.8906 54.8594
Q32.375 58.5938 29.375 60.8438
Q26.375 63.0938 22.125 63.0938
Q17.7812 63.0938 14.3125 60.4688
Q10.8438 57.8594 9.42188 53.7188
Q9.8125 53.8125 10.5 53.8125
Q12.75 53.8125 14.3281 52.2969
Q15.9219 50.7812 15.9219 48.3906
Q15.9219 46.0938 14.3281 44.5
Q12.75 42.9219 10.5 42.9219
Q8.15625 42.9219 6.5625 44.5469
Q4.98438 46.1875 4.98438 48.3906
Q4.98438 52.1562 6.39062 55.4375
Q7.8125 58.7344 10.4688 61.2969
Q13.1406 63.875 16.4844 65.2344
Q19.8281 66.6094 23.5781 66.6094
Q29.2969 66.6094 34.2188 64.1875
Q39.1562 61.7656 42.0312 57.3438
Q44.9219 52.9375 44.9219 47.0156
Q44.9219 42.6719 43.0156 38.7656
Q41.1094 34.8594 38.125 31.6562
Q35.1562 28.4688 30.5156 24.4062
Q25.875 20.3594 24.4219 19
L13.0938 8.10938
L22.7031 8.10938
Q29.7812 8.10938 34.5469 8.21875
Q39.3125 8.34375 39.5938 8.59375
Q40.7656 9.85938 42 17.8281
L44.9219 17.8281
L42.0938 0
z
" id="Cmr10-32"/>
    </defs>
    <g transform="translate(256.512 285.12)scale(0.12 -0.12)">
     <use transform="translate(0.0 0.4109375)" xlink:href="#Cmmi10-af"/>
     <use transform="translate(74.052734375 0.4109375)" xlink:href="#Cmr10-3d"/>
     <use transform="translate(158.111328125 0.4109375)" xlink:href="#Cmr10-32"/>
     <use transform="translate(208.111328125 0.4109375)" xlink:href="#Cmr10-30"/>
     <use transform="translate(270.40234375 42.9265625)scale(0.7)" xlink:href="#Cmsy10-b1"/>
    </g>
   </g>
   <g id="patch_7">
    <path d="
M272.6 366.508
Q289.013 377.112 304.486 387.109" style="fill:none;stroke:#000000;stroke-linecap:round;"/>
    <path d="
M301.757 382.488
L304.486 387.109
L299.152 386.52" style="fill:none;stroke:#000000;stroke-linecap:round;"/>
   </g>
   <g id="text_23">
    <!-- $\lambda_{opt}$ -->
    <defs>
     <path d="
M6.20312 8.10938
Q6.20312 9.57812 6.5 10.8906
L13.7188 39.5938
L3.21875 39.5938
Q2.20312 39.5938 2.20312 40.9219
Q2.59375 43.1094 3.51562 43.1094
L14.5938 43.1094
L18.6094 59.4219
Q19 60.75 20.1719 61.6719
Q21.3438 62.5938 22.7969 62.5938
Q24.0781 62.5938 24.9219 61.8281
Q25.7812 61.0781 25.7812 59.8125
Q25.7812 59.5156 25.75 59.3438
Q25.7344 59.1875 25.6875 58.9844
L21.6875 43.1094
L31.9844 43.1094
Q33.0156 43.1094 33.0156 41.7969
Q32.9531 41.5469 32.8125 40.9531
Q32.6719 40.375 32.4219 39.9844
Q32.1719 39.5938 31.6875 39.5938
L20.7969 39.5938
L13.625 10.6875
Q12.8906 7.85938 12.8906 5.8125
Q12.8906 1.51562 15.8281 1.51562
Q20.2188 1.51562 23.6094 5.64062
Q27 9.76562 28.8125 14.7031
Q29.2031 15.2812 29.5938 15.2812
L30.8125 15.2812
Q31.2031 15.2812 31.4375 15.0156
Q31.6875 14.75 31.6875 14.4062
Q31.6875 14.2031 31.5938 14.1094
Q29.3906 8.0625 25.1875 3.46875
Q21 -1.125 15.5781 -1.125
Q11.625 -1.125 8.90625 1.45312
Q6.20312 4.04688 6.20312 8.10938" id="Cmmi10-74"/>
     <path d="
M20.125 -1.125
Q15.375 -1.125 11.6875 1.125
Q8.01562 3.375 6 7.17188
Q4 10.9844 4 15.8281
Q4 22.6094 7.78125 29.25
Q11.5781 35.8906 17.8438 40.0312
Q24.125 44.1875 31 44.1875
Q34.7188 44.1875 37.625 42.9219
Q40.5312 41.6562 42.6719 39.3594
Q44.8281 37.0625 45.9688 33.9844
Q47.125 30.9062 47.125 27.2969
Q47.125 22.0781 44.9219 17.0156
Q42.7188 11.9688 38.8906 7.84375
Q35.0625 3.71875 30.125 1.29688
Q25.2031 -1.125 20.125 -1.125
M20.3125 1.51562
Q24.75 1.51562 28.4375 4.53125
Q32.125 7.5625 34.4844 12.1719
Q36.8594 16.7969 38.125 21.9219
Q39.4062 27.0469 39.4062 31.2031
Q39.4062 35.5469 37.2344 38.5781
Q35.0625 41.6094 30.8125 41.6094
Q24.9531 41.6094 20.5469 36.5938
Q16.1562 31.5938 13.9375 24.625
Q11.7188 17.6719 11.7188 11.9219
Q11.7188 7.5625 13.9375 4.53125
Q16.1562 1.51562 20.3125 1.51562" id="Cmmi10-6f"/>
    </defs>
    <g transform="translate(250.56 360.0)scale(0.12 -0.12)">
     <use transform="translate(0.0 0.609375)" xlink:href="#Cmmi10-b8"/>
     <use transform="translate(58.30078125 -24.9)scale(0.7)" xlink:href="#Cmmi10-6f"/>
     <use transform="translate(92.1728515625 -24.9)scale(0.7)" xlink:href="#Cmmi10-70"/>
     <use transform="translate(127.377929688 -24.9)scale(0.7)" xlink:href="#Cmmi10-74"/>
    </g>
   </g>
   <g id="patch_8">
    <path d="
M97.932 98.0101
Q85.8793 92.6139 74.8469 87.6746" style="fill:none;stroke:#000000;stroke-linecap:round;"/>
    <path d="
M78.2472 91.8265
L74.8469 87.6746
L80.2086 87.4455" style="fill:none;stroke:#000000;stroke-linecap:round;"/>
   </g>
   <g id="text_24">
    <!-- $c_{pmax}$ -->
    <defs>
     <path d="
M17.3906 -1.125
Q11.0781 -1.125 7.4375 3.64062
Q3.8125 8.40625 3.8125 14.8906
Q3.8125 21.2969 7.125 28.1719
Q10.4531 35.0625 16.0938 39.625
Q21.7344 44.1875 28.2188 44.1875
Q31.2031 44.1875 33.5469 42.5781
Q35.8906 40.9688 37.2031 38.1875
Q38.3281 42.1875 41.6094 42.1875
Q42.875 42.1875 43.7188 41.4219
Q44.5781 40.6719 44.5781 39.4062
Q44.5781 39.1094 44.5469 38.9531
Q44.5312 38.8125 44.4844 38.625
L37.5 10.6875
Q36.8125 7.71875 36.8125 5.8125
Q36.8125 1.51562 39.7031 1.51562
Q42.8281 1.51562 44.4531 5.48438
Q46.0938 9.46875 47.2188 14.7031
Q47.4062 15.2812 48 15.2812
L49.2188 15.2812
Q49.6094 15.2812 49.8438 14.9375
Q50.0938 14.5938 50.0938 14.3125
Q48.3438 7.32812 46.2656 3.09375
Q44.1875 -1.125 39.5 -1.125
Q36.1406 -1.125 33.5469 0.84375
Q30.9531 2.82812 30.3281 6.10938
Q23.875 -1.125 17.3906 -1.125
M17.4844 1.51562
Q21.0938 1.51562 24.4844 4.21875
Q27.875 6.9375 30.3281 10.5938
Q30.4219 10.6875 30.4219 10.8906
L35.7969 32.625
L35.8906 32.9062
Q35.2969 36.4688 33.3125 39.0312
Q31.3438 41.6094 27.9844 41.6094
Q24.6094 41.6094 21.7031 38.8438
Q18.7969 36.0781 16.7969 32.3281
Q14.8438 28.3281 13.0625 21.3438
Q11.2812 14.3594 11.2812 10.5
Q11.2812 7.03125 12.7656 4.26562
Q14.2656 1.51562 17.4844 1.51562" id="Cmmi10-61"/>
     <path d="
M7.8125 2.875
Q9.57812 1.51562 12.7969 1.51562
Q15.9219 1.51562 18.3125 4.51562
Q20.7031 7.51562 21.5781 11.0781
L26.125 28.8125
Q27.2031 33.6406 27.2031 35.4062
Q27.2031 37.8906 25.8125 39.75
Q24.4219 41.6094 21.9219 41.6094
Q18.75 41.6094 15.9688 39.625
Q13.1875 37.6406 11.2812 34.5938
Q9.375 31.5469 8.59375 28.4219
Q8.40625 27.7812 7.8125 27.7812
L6.59375 27.7812
Q5.8125 27.7812 5.8125 28.7188
L5.8125 29
Q6.78125 32.7188 9.125 36.25
Q11.4688 39.7969 14.8594 41.9844
Q18.2656 44.1875 22.125 44.1875
Q25.7812 44.1875 28.7344 42.2344
Q31.6875 40.2812 32.9062 36.9219
Q34.625 39.9844 37.2812 42.0781
Q39.9375 44.1875 43.1094 44.1875
Q45.2656 44.1875 47.5 43.4219
Q49.75 42.6719 51.1719 41.1094
Q52.5938 39.5469 52.5938 37.2031
Q52.5938 34.6719 50.9531 32.8281
Q49.3125 31 46.7812 31
Q45.1719 31 44.0938 32.0312
Q43.0156 33.0625 43.0156 34.625
Q43.0156 36.7188 44.4531 38.2969
Q45.9062 39.8906 47.9062 40.1875
Q46.0938 41.6094 42.9219 41.6094
Q39.7031 41.6094 37.3281 38.625
Q34.9688 35.6406 33.9844 31.9844
L29.5938 14.3125
Q28.5156 10.2969 28.5156 7.71875
Q28.5156 5.17188 29.9531 3.34375
Q31.3906 1.51562 33.7969 1.51562
Q38.4844 1.51562 42.1562 5.64062
Q45.8438 9.76562 47.0156 14.7031
Q47.2188 15.2812 47.7969 15.2812
L49.0312 15.2812
Q49.4219 15.2812 49.6562 15.0156
Q49.9062 14.75 49.9062 14.4062
Q49.9062 14.3125 49.8125 14.1094
Q48.3906 8.15625 43.8438 3.51562
Q39.3125 -1.125 33.5938 -1.125
Q29.9375 -1.125 26.9844 0.84375
Q24.0312 2.82812 22.7969 6.20312
Q21.2344 3.26562 18.4688 1.0625
Q15.7188 -1.125 12.5938 -1.125
Q10.4531 -1.125 8.17188 -0.359375
Q5.90625 0.390625 4.48438 1.95312
Q3.07812 3.51562 3.07812 5.90625
Q3.07812 8.25 4.70312 10.1719
Q6.34375 12.1094 8.79688 12.1094
Q10.4531 12.1094 11.5781 11.1094
Q12.7031 10.1094 12.7031 8.5
Q12.7031 6.39062 11.2969 4.82812
Q9.90625 3.26562 7.8125 2.875" id="Cmmi10-78"/>
     <path d="
M11.7188 11.9219
Q11.7188 7.5625 13.9375 4.53125
Q16.1562 1.51562 20.3125 1.51562
Q26.2656 1.51562 31.75 4.25
Q37.25 6.98438 40.7188 11.8125
Q41.0156 12.1094 41.5 12.1094
Q42 12.1094 42.5 11.5469
Q43.0156 10.9844 43.0156 10.5
Q43.0156 10.1094 42.8281 9.90625
Q39.1562 4.78125 32.9531 1.82812
Q26.7656 -1.125 20.125 -1.125
Q15.3281 -1.125 11.6719 1.14062
Q8.01562 3.42188 6 7.21875
Q4 11.0312 4 15.8281
Q4 22.5625 7.76562 29.2031
Q11.5312 35.8438 17.7812 40.0156
Q24.0312 44.1875 30.9062 44.1875
Q35.4062 44.1875 38.9844 42.0156
Q42.5781 39.8438 42.5781 35.5938
Q42.5781 32.8594 40.9844 30.9219
Q39.4062 29 36.7188 29
Q35.1094 29 34 30
Q32.9062 31 32.9062 32.625
Q32.9062 34.9688 34.6094 36.625
Q36.3281 38.2812 38.625 38.2812
L38.8125 38.2812
Q37.6406 39.9844 35.4219 40.7969
Q33.2031 41.6094 30.8125 41.6094
Q24.9531 41.6094 20.5469 36.5938
Q16.1562 31.5938 13.9375 24.625
Q11.7188 17.6719 11.7188 11.9219" id="Cmmi10-63"/>
     <path d="
M7.71875 1.70312
Q7.71875 2.29688 7.8125 2.59375
L15.2812 32.4219
Q16.0156 35.2031 16.0156 37.3125
Q16.0156 41.6094 13.0938 41.6094
Q9.96875 41.6094 8.45312 37.8594
Q6.9375 34.125 5.51562 28.4219
Q5.51562 28.125 5.21875 27.9531
Q4.9375 27.7812 4.6875 27.7812
L3.51562 27.7812
Q3.17188 27.7812 2.92188 28.1406
Q2.6875 28.5156 2.6875 28.8125
Q3.76562 33.1562 4.76562 36.1719
Q5.76562 39.2031 7.89062 41.6875
Q10.0156 44.1875 13.1875 44.1875
Q16.9375 44.1875 19.8125 41.8125
Q22.7031 39.4531 22.7031 35.7969
Q25.6875 39.7031 29.6875 41.9375
Q33.6875 44.1875 38.1875 44.1875
Q42.9219 44.1875 46.3594 41.7656
Q49.8125 39.3594 49.8125 34.9062
Q52.875 39.2656 57 41.7188
Q61.1406 44.1875 66.0156 44.1875
Q71.1875 44.1875 74.3281 41.375
Q77.4844 38.5781 77.4844 33.4062
Q77.4844 29.2969 75.6562 23.4844
Q73.8281 17.6719 71.0938 10.5
Q69.6719 7.03125 69.6719 4.5
Q69.6719 1.51562 72.0156 1.51562
Q75.9219 1.51562 78.5156 5.70312
Q81.1094 9.90625 82.1719 14.7031
Q82.4688 15.2812 83.0156 15.2812
L84.1875 15.2812
Q84.5781 15.2812 84.8438 15.0156
Q85.1094 14.75 85.1094 14.4062
Q85.1094 14.3125 85.0156 14.1094
Q83.6406 8.45312 80.25 3.65625
Q76.8594 -1.125 71.7812 -1.125
Q68.2656 -1.125 65.7656 1.29688
Q63.2812 3.71875 63.2812 7.17188
Q63.2812 8.9375 64.1094 11.0781
Q66.9375 18.6094 68.8125 24.5156
Q70.7031 30.4219 70.7031 34.9062
Q70.7031 37.7031 69.5781 39.6562
Q68.4531 41.6094 65.8281 41.6094
Q60.3594 41.6094 56.3438 38.25
Q52.3438 34.9062 49.4219 29.3906
Q49.2188 28.4219 49.125 27.875
L42.6719 2.20312
Q42.3281 0.828125 41.125 -0.140625
Q39.9375 -1.125 38.4844 -1.125
Q37.3125 -1.125 36.4062 -0.34375
Q35.5 0.4375 35.5 1.70312
Q35.5 2.29688 35.5938 2.59375
L42 28.0781
Q43.0156 32.1719 43.0156 34.9062
Q43.0156 37.7031 41.8594 39.6562
Q40.7188 41.6094 37.9844 41.6094
Q34.3281 41.6094 31.25 39.9844
Q28.1719 38.375 25.875 35.7188
Q23.5781 33.0625 21.6875 29.3906
L14.8906 2.20312
Q14.5469 0.828125 13.3438 -0.140625
Q12.1562 -1.125 10.6875 -1.125
Q9.46875 -1.125 8.59375 -0.34375
Q7.71875 0.4375 7.71875 1.70312" id="Cmmi10-6d"/>
    </defs>
    <g transform="translate(101.76 106.56)scale(0.12 -0.12)">
     <use transform="translate(0.0 0.8125)" xlink:href="#Cmmi10-63"/>
     <use transform="translate(43.212890625 -24.696875)scale(0.7)" xlink:href="#Cmmi10-70"/>
     <use transform="translate(78.41796875 -24.696875)scale(0.7)" xlink:href="#Cmmi10-6d"/>
     <use transform="translate(139.873046875 -24.696875)scale(0.7)" xlink:href="#Cmmi10-61"/>
     <use transform="translate(176.821289062 -24.696875)scale(0.7)" xlink:href="#Cmmi10-78"/>
    </g>
   </g>
  </g>
 </g>
 <defs>
  <clipPath id="p7ff5b81e1d">
   <rect height="345.6" width="446.4" x="72.0" y="43.2"/>
  </clipPath>
 </defs>
</svg>
